<svg width="100%" height="100%" viewBox="0 0 1198 935" version="1.1" xmlns="http://www.w3.org/2000/svg" xmlns:xlink="http://www.w3.org/1999/xlink" xml:space="preserve" xmlns:serif="http://www.serif.com/" style="fill-rule:evenodd;clip-rule:evenodd;stroke-linecap:round;stroke-linejoin:round;stroke-miterlimit:10;">
    <g transform="matrix(1,0,0,1,673.706,1399.58)">
        <g transform="matrix(-1,0,0,1,-116.954,0)">
            <g transform="matrix(3.40906,0,0,3.40906,-693.585,-1468.01)">
                <path d="M178.9,293.1L164.9,291.6L165.6,278.7" style="fill:none;fill-rule:nonzero;stroke:rgb(139,92,246);stroke-width:2px;"/>
            </g>
            <g transform="matrix(3.40906,0,0,3.40906,-693.585,-1468.01)">
                <path d="M174.5,282.9C174.5,282.9 317.5,181 246.5,120.9" style="fill:none;fill-rule:nonzero;stroke:rgb(139,92,246);stroke-width:2px;stroke-linecap:butt;stroke-linejoin:miter;stroke-dasharray:12.27,12.27;"/>
            </g>
            <g transform="matrix(-0.986073,0.166311,0.166311,0.986073,252.405,503.219)">
                <g transform="matrix(121.852,0,0,121.852,-593.95,-1792.38)">
                    <path d="M0.344,-0L0.313,-0L0.3,-0.002C0.295,-0.003 0.289,-0.005 0.282,-0.008C0.272,-0.012 0.261,-0.018 0.248,-0.029C0.233,0.002 0.211,0.037 0.183,0.078C0.175,0.09 0.163,0.105 0.148,0.124L0.116,0.164C0.112,0.169 0.107,0.173 0.101,0.176C0.095,0.178 0.089,0.18 0.083,0.18C0.07,0.18 0.059,0.175 0.048,0.166C0.038,0.157 0.033,0.147 0.033,0.135C0.033,0.125 0.037,0.116 0.045,0.108C0.079,0.072 0.113,0.025 0.148,-0.031C0.162,-0.055 0.176,-0.081 0.189,-0.109C0.194,-0.119 0.199,-0.129 0.203,-0.141C0.208,-0.153 0.213,-0.167 0.218,-0.183C0.221,-0.195 0.227,-0.205 0.235,-0.211C0.244,-0.218 0.254,-0.221 0.264,-0.221C0.273,-0.221 0.282,-0.217 0.292,-0.21C0.301,-0.202 0.306,-0.192 0.306,-0.181L0.306,-0.175C0.306,-0.173 0.305,-0.171 0.305,-0.17C0.301,-0.152 0.299,-0.137 0.299,-0.126C0.299,-0.117 0.301,-0.109 0.305,-0.102C0.309,-0.096 0.316,-0.093 0.327,-0.093L0.344,-0.093L0.344,-0Z" style="fill:rgb(139,92,246);fill-rule:nonzero;"/>
                </g>
                <g transform="matrix(121.852,0,0,121.852,-553.134,-1792.38)">
                    <path d="M0.219,-0.257C0.219,-0.202 0.196,-0.146 0.151,-0.087C0.106,-0.029 0.058,-0 0.008,-0L-0.005,-0L-0.005,-0.093L0.008,-0.093C0.04,-0.093 0.068,-0.112 0.092,-0.15C0.11,-0.18 0.124,-0.218 0.132,-0.263C0.134,-0.276 0.139,-0.285 0.147,-0.291C0.155,-0.297 0.164,-0.3 0.172,-0.3C0.184,-0.3 0.195,-0.296 0.205,-0.288C0.214,-0.28 0.219,-0.27 0.219,-0.257ZM0.237,0.097L0.236,0.106C0.236,0.11 0.236,0.113 0.235,0.114C0.233,0.124 0.227,0.135 0.216,0.147L0.2,0.158C0.194,0.161 0.188,0.162 0.183,0.162L0.177,0.162C0.167,0.16 0.158,0.155 0.15,0.146C0.144,0.14 0.142,0.131 0.142,0.12L0.143,0.109L0.145,0.098C0.147,0.087 0.154,0.077 0.165,0.069C0.176,0.061 0.187,0.058 0.198,0.058L0.205,0.058C0.226,0.062 0.237,0.075 0.237,0.097ZM0.133,0.097L0.132,0.106C0.132,0.11 0.132,0.113 0.131,0.114C0.129,0.127 0.123,0.137 0.112,0.146L0.096,0.157C0.09,0.16 0.084,0.162 0.079,0.162L0.073,0.161C0.061,0.159 0.052,0.154 0.046,0.147C0.041,0.14 0.038,0.131 0.038,0.12L0.038,0.109L0.041,0.098C0.044,0.086 0.051,0.076 0.061,0.069C0.071,0.061 0.083,0.058 0.094,0.058L0.101,0.058C0.122,0.062 0.133,0.075 0.133,0.097Z" style="fill:rgb(139,92,246);fill-rule:nonzero;"/>
                </g>
                <g transform="matrix(121.852,0,0,121.852,-524.396,-1792.38)">
                    <path d="M0.321,-0.357L0.321,-0.352C0.321,-0.349 0.321,-0.347 0.32,-0.346L0.319,-0.336C0.317,-0.323 0.309,-0.31 0.295,-0.297C0.281,-0.285 0.268,-0.279 0.255,-0.279L0.247,-0.279C0.232,-0.281 0.221,-0.286 0.214,-0.296C0.207,-0.305 0.204,-0.317 0.204,-0.33L0.204,-0.34L0.204,-0.348L0.208,-0.357C0.211,-0.369 0.22,-0.38 0.232,-0.39C0.245,-0.401 0.259,-0.406 0.273,-0.406L0.281,-0.405C0.308,-0.4 0.321,-0.384 0.321,-0.357ZM0.297,-0.125L0.297,-0.12C0.297,-0.117 0.297,-0.115 0.296,-0.115L0.293,-0.105C0.275,-0.05 0.251,-0.003 0.222,0.036C0.198,0.074 0.163,0.116 0.117,0.163C0.11,0.168 0.103,0.173 0.095,0.177C0.087,0.181 0.08,0.183 0.072,0.183C0.06,0.183 0.05,0.179 0.041,0.17C0.033,0.161 0.029,0.151 0.029,0.14C0.029,0.132 0.03,0.125 0.032,0.121C0.035,0.117 0.04,0.111 0.047,0.103C0.083,0.07 0.115,0.035 0.141,-0.003C0.168,-0.041 0.191,-0.084 0.21,-0.131C0.213,-0.141 0.219,-0.149 0.229,-0.157C0.238,-0.163 0.247,-0.166 0.256,-0.166C0.265,-0.166 0.275,-0.162 0.284,-0.155C0.293,-0.147 0.297,-0.137 0.297,-0.125Z" style="fill:rgb(139,92,246);fill-rule:nonzero;"/>
                </g>
                <g transform="matrix(121.852,0,0,121.852,-460.674,-1792.38)">
                    <path d="M0.625,-0.307L0.624,-0.3C0.624,-0.284 0.611,-0.26 0.583,-0.229C0.556,-0.198 0.537,-0.182 0.524,-0.182L0.52,-0.183C0.516,-0.185 0.514,-0.191 0.514,-0.201L0.515,-0.215C0.516,-0.22 0.518,-0.224 0.52,-0.229C0.511,-0.227 0.502,-0.224 0.494,-0.22L0.479,-0.212L0.463,-0.201C0.442,-0.186 0.431,-0.172 0.428,-0.16C0.427,-0.151 0.437,-0.143 0.457,-0.135C0.488,-0.125 0.509,-0.117 0.519,-0.112C0.542,-0.099 0.553,-0.079 0.553,-0.054L0.553,-0.042L0.551,-0.034C0.544,0.011 0.515,0.053 0.463,0.092C0.409,0.134 0.348,0.155 0.283,0.155C0.269,0.155 0.253,0.153 0.233,0.15C0.183,0.143 0.143,0.122 0.114,0.088C0.101,0.073 0.09,0.055 0.083,0.034C0.076,0.013 0.072,-0.008 0.072,-0.03C0.072,-0.065 0.08,-0.101 0.096,-0.139C0.112,-0.177 0.136,-0.215 0.167,-0.252C0.176,-0.26 0.183,-0.267 0.19,-0.271L0.201,-0.275L0.213,-0.277C0.225,-0.277 0.235,-0.273 0.242,-0.265C0.25,-0.257 0.253,-0.247 0.253,-0.234L0.253,-0.229C0.253,-0.226 0.253,-0.225 0.252,-0.224L0.25,-0.216C0.248,-0.212 0.245,-0.206 0.239,-0.198C0.227,-0.183 0.216,-0.168 0.207,-0.154L0.194,-0.134L0.184,-0.113C0.171,-0.087 0.165,-0.063 0.165,-0.042C0.165,-0.017 0.172,0.004 0.188,0.019C0.203,0.034 0.227,0.046 0.26,0.054C0.272,0.056 0.285,0.057 0.297,0.057C0.337,0.057 0.373,0.048 0.404,0.03C0.435,0.013 0.453,-0.008 0.458,-0.033L0.458,-0.036L0.458,-0.038C0.458,-0.049 0.447,-0.059 0.423,-0.07L0.357,-0.092C0.333,-0.103 0.321,-0.118 0.321,-0.136L0.322,-0.146C0.327,-0.173 0.346,-0.203 0.378,-0.235C0.386,-0.242 0.4,-0.254 0.422,-0.271L0.477,-0.307L0.5,-0.319L0.523,-0.331L0.539,-0.337L0.563,-0.346L0.572,-0.348L0.58,-0.349C0.592,-0.349 0.603,-0.345 0.612,-0.337C0.62,-0.329 0.625,-0.319 0.625,-0.307Z" style="fill:rgb(139,92,246);fill-rule:nonzero;"/>
                </g>
                <g transform="matrix(121.852,0,0,121.852,-384.457,-1792.38)">
                    <path d="M0.221,-0.462C0.221,-0.454 0.22,-0.445 0.216,-0.435L0.186,-0.347L0.15,-0.233C0.138,-0.189 0.132,-0.16 0.132,-0.146C0.132,-0.126 0.134,-0.113 0.137,-0.106C0.142,-0.098 0.151,-0.093 0.165,-0.093L0.191,-0.093L0.191,-0L0.164,-0C0.131,-0 0.104,-0.01 0.082,-0.029C0.059,-0.052 0.047,-0.086 0.047,-0.131C0.047,-0.156 0.053,-0.192 0.063,-0.238C0.067,-0.258 0.072,-0.278 0.079,-0.297C0.08,-0.304 0.083,-0.313 0.086,-0.324C0.09,-0.335 0.094,-0.349 0.099,-0.364L0.116,-0.415L0.135,-0.468C0.139,-0.48 0.146,-0.489 0.155,-0.495C0.164,-0.501 0.173,-0.504 0.183,-0.504C0.193,-0.504 0.202,-0.501 0.21,-0.494C0.217,-0.487 0.221,-0.477 0.221,-0.462Z" style="fill:rgb(139,92,246);fill-rule:nonzero;"/>
                </g>
                <g transform="matrix(121.852,0,0,121.852,-362.205,-1792.38)">
                    <path d="M0.397,-0.152C0.397,-0.119 0.379,-0.091 0.343,-0.068C0.327,-0.059 0.308,-0.051 0.286,-0.045L0.255,-0.039L0.222,-0.037C0.197,-0.037 0.175,-0.04 0.156,-0.046C0.139,-0.035 0.117,-0.024 0.088,-0.014L0.052,-0.003L0.037,-0.001L0.022,-0L-0.005,-0L-0.005,-0.093L0.02,-0.093L0.036,-0.094L0.056,-0.097C0.07,-0.099 0.081,-0.102 0.088,-0.106L0.084,-0.122L0.083,-0.139C0.083,-0.162 0.09,-0.187 0.105,-0.214C0.12,-0.241 0.139,-0.263 0.164,-0.279C0.16,-0.281 0.154,-0.287 0.147,-0.296C0.144,-0.305 0.143,-0.311 0.143,-0.316C0.143,-0.327 0.146,-0.336 0.154,-0.343C0.161,-0.351 0.17,-0.354 0.181,-0.354C0.191,-0.354 0.201,-0.351 0.212,-0.344L0.229,-0.332L0.249,-0.316L0.254,-0.317C0.262,-0.317 0.266,-0.316 0.269,-0.314C0.272,-0.313 0.277,-0.31 0.285,-0.305C0.297,-0.296 0.304,-0.285 0.304,-0.272C0.317,-0.262 0.329,-0.252 0.339,-0.243L0.354,-0.228L0.369,-0.211C0.388,-0.188 0.397,-0.169 0.397,-0.152ZM0.307,-0.153C0.307,-0.156 0.304,-0.161 0.299,-0.167C0.295,-0.174 0.29,-0.18 0.283,-0.186L0.277,-0.168L0.273,-0.161L0.266,-0.151C0.261,-0.141 0.252,-0.131 0.239,-0.119L0.251,-0.119L0.272,-0.12C0.277,-0.121 0.283,-0.123 0.29,-0.126C0.301,-0.132 0.307,-0.141 0.307,-0.153ZM0.223,-0.223C0.223,-0.227 0.222,-0.23 0.22,-0.232L0.213,-0.234C0.206,-0.234 0.197,-0.228 0.186,-0.217C0.176,-0.207 0.169,-0.196 0.166,-0.187C0.164,-0.179 0.163,-0.17 0.163,-0.162C0.163,-0.154 0.164,-0.148 0.166,-0.146C0.177,-0.149 0.189,-0.161 0.202,-0.179C0.216,-0.197 0.223,-0.212 0.223,-0.223Z" style="fill:rgb(139,92,246);fill-rule:nonzero;"/>
                </g>
                <g transform="matrix(121.852,0,0,121.852,-314.19,-1792.38)">
                    <path d="M0.338,-0L0.319,-0C0.297,-0 0.277,-0.006 0.26,-0.017C0.243,-0.029 0.228,-0.045 0.217,-0.064C0.205,-0.06 0.191,-0.057 0.174,-0.057C0.145,-0.057 0.12,-0.065 0.1,-0.082C0.091,-0.09 0.083,-0.099 0.078,-0.11L0.072,-0.127L0.07,-0.145C0.07,-0.162 0.074,-0.178 0.083,-0.191C0.091,-0.209 0.107,-0.228 0.128,-0.248C0.145,-0.263 0.165,-0.277 0.186,-0.289L0.242,-0.317C0.245,-0.319 0.248,-0.324 0.252,-0.331L0.259,-0.346C0.265,-0.357 0.276,-0.363 0.291,-0.363C0.302,-0.363 0.312,-0.359 0.32,-0.353C0.329,-0.346 0.333,-0.337 0.333,-0.325C0.333,-0.32 0.332,-0.314 0.329,-0.306L0.307,-0.253L0.292,-0.209L0.284,-0.171C0.282,-0.16 0.281,-0.151 0.281,-0.143C0.281,-0.127 0.284,-0.115 0.29,-0.106C0.297,-0.097 0.307,-0.093 0.321,-0.093L0.338,-0.093L0.338,-0ZM0.211,-0.211L0.201,-0.205C0.197,-0.203 0.194,-0.201 0.192,-0.199L0.183,-0.192L0.177,-0.186C0.169,-0.179 0.163,-0.171 0.157,-0.161L0.155,-0.154C0.155,-0.15 0.157,-0.146 0.161,-0.142L0.174,-0.137C0.178,-0.137 0.183,-0.138 0.189,-0.14C0.195,-0.142 0.2,-0.145 0.203,-0.147L0.203,-0.157L0.205,-0.175L0.211,-0.211Z" style="fill:rgb(139,92,246);fill-rule:nonzero;"/>
                </g>
                <g transform="matrix(121.852,0,0,121.852,-274.029,-1792.38)">
                    <path d="M0.221,-0.384L0.221,-0.378C0.221,-0.375 0.221,-0.374 0.22,-0.373L0.219,-0.363C0.217,-0.35 0.209,-0.337 0.195,-0.324C0.181,-0.312 0.168,-0.305 0.154,-0.305L0.146,-0.306C0.132,-0.308 0.122,-0.313 0.114,-0.322C0.107,-0.331 0.104,-0.342 0.104,-0.356C0.104,-0.366 0.105,-0.375 0.107,-0.384C0.111,-0.398 0.119,-0.41 0.132,-0.419C0.145,-0.428 0.158,-0.433 0.172,-0.433L0.181,-0.432C0.208,-0.427 0.221,-0.411 0.221,-0.384ZM0.239,-0L0.22,-0C0.198,-0 0.178,-0.006 0.16,-0.017C0.146,-0.026 0.134,-0.038 0.125,-0.053C0.111,-0.038 0.091,-0.025 0.064,-0.013C0.041,-0.004 0.022,-0 0.008,-0L-0.005,-0L-0.005,-0.093L0.01,-0.093C0.034,-0.093 0.058,-0.105 0.08,-0.128C0.102,-0.151 0.118,-0.18 0.126,-0.213C0.128,-0.223 0.134,-0.231 0.142,-0.236C0.151,-0.241 0.16,-0.244 0.169,-0.244C0.18,-0.244 0.189,-0.241 0.197,-0.236C0.205,-0.23 0.208,-0.222 0.208,-0.212L0.208,-0.205L0.196,-0.159L0.193,-0.142L0.192,-0.129C0.192,-0.118 0.195,-0.109 0.199,-0.103C0.203,-0.097 0.211,-0.093 0.222,-0.093L0.239,-0.093L0.239,-0Z" style="fill:rgb(139,92,246);fill-rule:nonzero;"/>
                </g>
                <g transform="matrix(121.852,0,0,121.852,-245.827,-1792.38)">
                    <path d="M0.219,-0.257C0.219,-0.202 0.196,-0.146 0.151,-0.087C0.106,-0.029 0.058,-0 0.008,-0L-0.005,-0L-0.005,-0.093L0.008,-0.093C0.04,-0.093 0.068,-0.112 0.092,-0.15C0.11,-0.18 0.124,-0.218 0.132,-0.263C0.134,-0.276 0.139,-0.285 0.147,-0.291C0.155,-0.297 0.164,-0.3 0.172,-0.3C0.184,-0.3 0.195,-0.296 0.205,-0.288C0.214,-0.28 0.219,-0.27 0.219,-0.257ZM0.237,0.097L0.236,0.106C0.236,0.11 0.236,0.113 0.235,0.114C0.233,0.124 0.227,0.135 0.216,0.147L0.2,0.158C0.194,0.161 0.188,0.162 0.183,0.162L0.177,0.162C0.167,0.16 0.158,0.155 0.15,0.146C0.144,0.14 0.142,0.131 0.142,0.12L0.143,0.109L0.145,0.098C0.147,0.087 0.154,0.077 0.165,0.069C0.176,0.061 0.187,0.058 0.198,0.058L0.205,0.058C0.226,0.062 0.237,0.075 0.237,0.097ZM0.133,0.097L0.132,0.106C0.132,0.11 0.132,0.113 0.131,0.114C0.129,0.127 0.123,0.137 0.112,0.146L0.096,0.157C0.09,0.16 0.084,0.162 0.079,0.162L0.073,0.161C0.061,0.159 0.052,0.154 0.046,0.147C0.041,0.14 0.038,0.131 0.038,0.12L0.038,0.109L0.041,0.098C0.044,0.086 0.051,0.076 0.061,0.069C0.071,0.061 0.083,0.058 0.094,0.058L0.101,0.058C0.122,0.062 0.133,0.075 0.133,0.097Z" style="fill:rgb(139,92,246);fill-rule:nonzero;"/>
                </g>
                <g transform="matrix(121.852,0,0,121.852,-217.089,-1792.38)">
                    <path d="M0.326,-0.379L0.326,-0.374C0.326,-0.371 0.326,-0.369 0.325,-0.368L0.324,-0.358C0.322,-0.343 0.314,-0.33 0.301,-0.318C0.288,-0.306 0.274,-0.3 0.26,-0.3L0.252,-0.301C0.239,-0.303 0.228,-0.309 0.219,-0.318C0.212,-0.328 0.208,-0.339 0.208,-0.352L0.208,-0.362L0.209,-0.37L0.212,-0.379C0.216,-0.393 0.225,-0.405 0.238,-0.414C0.25,-0.423 0.264,-0.428 0.278,-0.428L0.286,-0.427C0.313,-0.422 0.326,-0.406 0.326,-0.379ZM0.344,-0L0.313,-0L0.3,-0.002C0.295,-0.003 0.289,-0.005 0.282,-0.008C0.272,-0.012 0.261,-0.018 0.248,-0.029C0.233,0.002 0.211,0.037 0.183,0.078C0.175,0.09 0.163,0.105 0.148,0.124L0.116,0.164C0.112,0.169 0.107,0.173 0.101,0.176C0.095,0.178 0.089,0.18 0.083,0.18C0.07,0.18 0.059,0.175 0.048,0.166C0.038,0.157 0.033,0.147 0.033,0.135C0.033,0.125 0.037,0.116 0.045,0.108C0.079,0.072 0.113,0.025 0.148,-0.031C0.162,-0.055 0.176,-0.081 0.189,-0.109C0.194,-0.119 0.199,-0.129 0.203,-0.141C0.208,-0.153 0.213,-0.167 0.218,-0.183C0.221,-0.195 0.227,-0.205 0.235,-0.211C0.244,-0.218 0.254,-0.221 0.264,-0.221C0.273,-0.221 0.282,-0.217 0.292,-0.21C0.301,-0.202 0.306,-0.192 0.306,-0.181L0.306,-0.175C0.306,-0.173 0.305,-0.171 0.305,-0.17C0.301,-0.152 0.299,-0.137 0.299,-0.126C0.299,-0.117 0.301,-0.109 0.305,-0.102C0.309,-0.096 0.316,-0.093 0.327,-0.093L0.344,-0.093L0.344,-0Z" style="fill:rgb(139,92,246);fill-rule:nonzero;"/>
                </g>
                <g transform="matrix(121.852,0,0,121.852,-176.333,-1792.38)">
                    <path d="M0.625,-0.785C0.625,-0.776 0.623,-0.768 0.62,-0.762C0.617,-0.754 0.611,-0.745 0.604,-0.735C0.579,-0.704 0.543,-0.667 0.496,-0.625C0.471,-0.603 0.447,-0.583 0.425,-0.567C0.415,-0.559 0.403,-0.551 0.392,-0.542C0.381,-0.534 0.367,-0.524 0.351,-0.513C0.299,-0.478 0.254,-0.457 0.218,-0.45L0.214,-0.449L0.211,-0.449C0.201,-0.449 0.191,-0.453 0.183,-0.461C0.175,-0.471 0.171,-0.48 0.171,-0.49C0.171,-0.5 0.175,-0.509 0.181,-0.518C0.186,-0.524 0.198,-0.531 0.217,-0.539C0.257,-0.551 0.3,-0.574 0.349,-0.606C0.368,-0.619 0.386,-0.633 0.404,-0.648L0.431,-0.671L0.445,-0.684L0.461,-0.699L0.481,-0.719L0.502,-0.741L0.545,-0.79C0.55,-0.798 0.558,-0.804 0.567,-0.809C0.577,-0.815 0.585,-0.817 0.593,-0.817C0.602,-0.817 0.609,-0.814 0.615,-0.808C0.622,-0.802 0.625,-0.795 0.625,-0.785ZM0.453,-0.74L0.452,-0.729C0.451,-0.726 0.449,-0.722 0.447,-0.717C0.444,-0.711 0.437,-0.7 0.425,-0.686C0.414,-0.672 0.39,-0.65 0.353,-0.621C0.326,-0.599 0.298,-0.579 0.268,-0.56L0.256,-0.554L0.245,-0.549L0.224,-0.546C0.217,-0.546 0.21,-0.547 0.205,-0.55C0.2,-0.554 0.198,-0.558 0.198,-0.564C0.198,-0.574 0.206,-0.585 0.223,-0.596L0.274,-0.632C0.295,-0.647 0.312,-0.66 0.327,-0.672L0.353,-0.693L0.374,-0.712C0.388,-0.726 0.4,-0.737 0.411,-0.743L0.427,-0.751C0.432,-0.753 0.436,-0.754 0.439,-0.754C0.449,-0.754 0.453,-0.749 0.453,-0.74ZM0.224,-0.394L0.224,-0.364L0.222,-0.316L0.221,-0.297L0.221,-0.285L0.219,-0.275L0.219,-0.262L0.217,-0.252L0.212,-0.221C0.203,-0.151 0.182,-0.096 0.149,-0.058C0.116,-0.019 0.077,-0 0.032,-0L-0.005,-0L-0.005,-0.093L0.027,-0.093C0.052,-0.093 0.071,-0.104 0.086,-0.126C0.101,-0.147 0.113,-0.185 0.123,-0.238L0.126,-0.278L0.128,-0.311L0.131,-0.394C0.131,-0.409 0.136,-0.422 0.145,-0.431C0.155,-0.44 0.166,-0.445 0.179,-0.445C0.19,-0.445 0.201,-0.44 0.21,-0.431C0.219,-0.422 0.224,-0.41 0.224,-0.394Z" style="fill:rgb(139,92,246);fill-rule:nonzero;"/>
                </g>
                <g transform="matrix(121.852,0,0,121.852,-107.018,-1792.38)">
                    <path d="M0.321,-0.357L0.321,-0.352C0.321,-0.349 0.321,-0.347 0.32,-0.346L0.319,-0.336C0.317,-0.323 0.309,-0.31 0.295,-0.297C0.281,-0.285 0.268,-0.279 0.255,-0.279L0.247,-0.279C0.232,-0.281 0.221,-0.286 0.214,-0.296C0.207,-0.305 0.204,-0.317 0.204,-0.33L0.204,-0.34L0.204,-0.348L0.208,-0.357C0.211,-0.369 0.22,-0.38 0.232,-0.39C0.245,-0.401 0.259,-0.406 0.273,-0.406L0.281,-0.405C0.308,-0.4 0.321,-0.384 0.321,-0.357ZM0.297,-0.125L0.297,-0.12C0.297,-0.117 0.297,-0.115 0.296,-0.115L0.293,-0.105C0.275,-0.05 0.251,-0.003 0.222,0.036C0.198,0.074 0.163,0.116 0.117,0.163C0.11,0.168 0.103,0.173 0.095,0.177C0.087,0.181 0.08,0.183 0.072,0.183C0.06,0.183 0.05,0.179 0.041,0.17C0.033,0.161 0.029,0.151 0.029,0.14C0.029,0.132 0.03,0.125 0.032,0.121C0.035,0.117 0.04,0.111 0.047,0.103C0.083,0.07 0.115,0.035 0.141,-0.003C0.168,-0.041 0.191,-0.084 0.21,-0.131C0.213,-0.141 0.219,-0.149 0.229,-0.157C0.238,-0.163 0.247,-0.166 0.256,-0.166C0.265,-0.166 0.275,-0.162 0.284,-0.155C0.293,-0.147 0.297,-0.137 0.297,-0.125Z" style="fill:rgb(139,92,246);fill-rule:nonzero;"/>
                </g>
                <g transform="matrix(121.852,0,0,121.852,-67.0946,-1792.38)">
                    <path d="M0.175,-0.44C0.175,-0.285 0.156,-0.152 0.117,-0.041C0.113,-0.029 0.106,-0.02 0.095,-0.012C0.085,-0.004 0.074,-0 0.063,-0C0.053,-0 0.045,-0.004 0.038,-0.01C0.032,-0.016 0.028,-0.026 0.028,-0.04C0.028,-0.05 0.031,-0.063 0.036,-0.076C0.051,-0.119 0.064,-0.178 0.075,-0.252C0.086,-0.326 0.091,-0.396 0.091,-0.46C0.091,-0.474 0.095,-0.485 0.102,-0.493C0.11,-0.501 0.118,-0.505 0.129,-0.505C0.14,-0.505 0.15,-0.499 0.16,-0.487C0.17,-0.475 0.175,-0.46 0.175,-0.44Z" style="fill:rgb(139,92,246);fill-rule:nonzero;"/>
                </g>
                <g transform="matrix(121.852,0,0,121.852,-16.7593,-1792.38)">
                    <path d="M0.461,-0.333C0.461,-0.307 0.45,-0.286 0.429,-0.27C0.408,-0.253 0.377,-0.241 0.336,-0.235L0.337,-0.23L0.337,-0.225C0.337,-0.214 0.334,-0.205 0.329,-0.199C0.323,-0.192 0.316,-0.189 0.307,-0.189C0.301,-0.189 0.297,-0.189 0.294,-0.19L0.286,-0.194L0.277,-0.199L0.26,-0.214L0.242,-0.238C0.231,-0.239 0.224,-0.24 0.221,-0.241L0.201,-0.248C0.185,-0.252 0.176,-0.255 0.172,-0.255L0.166,-0.253C0.163,-0.251 0.16,-0.243 0.157,-0.227L0.155,-0.194L0.154,-0.164L0.158,-0.093L0.16,-0.042L0.17,0.082C0.174,0.125 0.176,0.154 0.176,0.167C0.176,0.182 0.172,0.194 0.164,0.202C0.156,0.21 0.146,0.214 0.135,0.214C0.125,0.214 0.116,0.212 0.109,0.206C0.101,0.201 0.096,0.191 0.091,0.177L0.084,0.128C0.083,0.115 0.082,0.103 0.082,0.092C0.081,0.082 0.081,0.071 0.081,0.061L0.08,0.003L0.076,-0.098L0.077,-0.145L0.078,-0.188L0.08,-0.224C0.08,-0.232 0.08,-0.237 0.081,-0.24L0.082,-0.248L0.084,-0.26C0.09,-0.309 0.1,-0.338 0.115,-0.348C0.119,-0.35 0.123,-0.352 0.128,-0.354L0.142,-0.355C0.148,-0.355 0.161,-0.352 0.182,-0.345L0.196,-0.34L0.208,-0.337C0.208,-0.369 0.218,-0.397 0.237,-0.421C0.258,-0.446 0.285,-0.458 0.318,-0.458C0.359,-0.458 0.393,-0.447 0.42,-0.425C0.447,-0.403 0.461,-0.372 0.461,-0.333ZM0.37,-0.336C0.37,-0.344 0.364,-0.351 0.353,-0.357L0.335,-0.364L0.318,-0.367C0.312,-0.367 0.307,-0.364 0.303,-0.359C0.3,-0.352 0.298,-0.345 0.298,-0.339C0.298,-0.331 0.299,-0.325 0.301,-0.322L0.317,-0.321L0.332,-0.32C0.342,-0.32 0.351,-0.321 0.358,-0.323C0.366,-0.325 0.37,-0.33 0.37,-0.336Z" style="fill:rgb(139,92,246);fill-rule:nonzero;"/>
                </g>
                <g transform="matrix(121.852,0,0,121.852,39.4068,-1792.38)">
                    <path d="M0.175,-0.44C0.175,-0.285 0.156,-0.152 0.117,-0.041C0.113,-0.029 0.106,-0.02 0.095,-0.012C0.085,-0.004 0.074,-0 0.063,-0C0.053,-0 0.045,-0.004 0.038,-0.01C0.032,-0.016 0.028,-0.026 0.028,-0.04C0.028,-0.05 0.031,-0.063 0.036,-0.076C0.051,-0.119 0.064,-0.178 0.075,-0.252C0.086,-0.326 0.091,-0.396 0.091,-0.46C0.091,-0.474 0.095,-0.485 0.102,-0.493C0.11,-0.501 0.118,-0.505 0.129,-0.505C0.14,-0.505 0.15,-0.499 0.16,-0.487C0.17,-0.475 0.175,-0.46 0.175,-0.44Z" style="fill:rgb(139,92,246);fill-rule:nonzero;"/>
                </g>
                <g transform="matrix(121.852,0,0,121.852,65.943,-1792.38)">
                    <path d="M0.364,-0L0.345,-0C0.329,-0 0.312,-0.005 0.294,-0.015C0.276,-0.025 0.262,-0.036 0.252,-0.048C0.238,-0.022 0.22,0.003 0.199,0.026C0.189,0.037 0.177,0.049 0.162,0.062C0.147,0.075 0.132,0.086 0.118,0.094L0.106,0.1L0.094,0.102C0.081,0.102 0.07,0.097 0.06,0.086C0.051,0.075 0.046,0.063 0.046,0.051C0.046,0.038 0.052,0.028 0.064,0.02C0.076,0.013 0.087,0.006 0.097,-0.001L0.112,-0.014L0.129,-0.029C0.149,-0.048 0.167,-0.069 0.182,-0.092C0.193,-0.11 0.204,-0.135 0.216,-0.168C0.223,-0.193 0.23,-0.221 0.236,-0.253C0.238,-0.265 0.243,-0.274 0.25,-0.28C0.258,-0.286 0.266,-0.289 0.276,-0.289C0.288,-0.289 0.299,-0.284 0.309,-0.276C0.319,-0.268 0.325,-0.259 0.325,-0.248L0.324,-0.24L0.319,-0.221L0.314,-0.197L0.312,-0.174L0.311,-0.153C0.311,-0.134 0.313,-0.119 0.318,-0.109C0.324,-0.098 0.334,-0.093 0.347,-0.093L0.364,-0.093L0.364,-0Z" style="fill:rgb(139,92,246);fill-rule:nonzero;"/>
                </g>
                <g transform="matrix(121.852,0,0,121.852,109.198,-1792.38)">
                    <path d="M0.621,-0.791L0.62,-0.777C0.619,-0.771 0.617,-0.767 0.614,-0.764C0.612,-0.759 0.609,-0.754 0.605,-0.749C0.603,-0.744 0.598,-0.74 0.593,-0.735C0.571,-0.712 0.545,-0.688 0.517,-0.665C0.497,-0.649 0.467,-0.625 0.426,-0.595C0.368,-0.555 0.299,-0.512 0.222,-0.468C0.214,-0.465 0.207,-0.463 0.202,-0.463C0.19,-0.463 0.178,-0.466 0.168,-0.474C0.158,-0.482 0.153,-0.491 0.153,-0.501C0.153,-0.508 0.155,-0.515 0.159,-0.52C0.164,-0.526 0.173,-0.534 0.188,-0.543C0.214,-0.557 0.243,-0.574 0.276,-0.596C0.305,-0.615 0.339,-0.638 0.378,-0.667C0.418,-0.696 0.45,-0.721 0.476,-0.743C0.49,-0.755 0.502,-0.766 0.513,-0.775C0.524,-0.786 0.535,-0.797 0.543,-0.807C0.548,-0.813 0.555,-0.818 0.563,-0.822L0.572,-0.826L0.585,-0.828C0.595,-0.828 0.604,-0.825 0.611,-0.817C0.618,-0.81 0.621,-0.801 0.621,-0.791ZM0.224,-0.394L0.224,-0.364L0.222,-0.316L0.221,-0.297L0.221,-0.285L0.219,-0.275L0.219,-0.262L0.217,-0.252L0.212,-0.221C0.203,-0.151 0.182,-0.096 0.149,-0.058C0.116,-0.019 0.077,-0 0.032,-0L-0.005,-0L-0.005,-0.093L0.027,-0.093C0.052,-0.093 0.071,-0.104 0.086,-0.126C0.101,-0.147 0.113,-0.185 0.123,-0.238L0.126,-0.278L0.128,-0.311L0.131,-0.394C0.131,-0.409 0.136,-0.422 0.145,-0.431C0.155,-0.44 0.166,-0.445 0.179,-0.445C0.19,-0.445 0.201,-0.44 0.21,-0.431C0.219,-0.422 0.224,-0.41 0.224,-0.394Z" style="fill:rgb(139,92,246);fill-rule:nonzero;"/>
                </g>
                <g transform="matrix(121.852,0,0,121.852,154.714,-1792.38)">
                    <path d="M0.344,-0L0.313,-0L0.3,-0.002C0.295,-0.003 0.289,-0.005 0.282,-0.008C0.272,-0.012 0.261,-0.018 0.248,-0.029C0.233,0.002 0.211,0.037 0.183,0.078C0.175,0.09 0.163,0.105 0.148,0.124L0.116,0.164C0.112,0.169 0.107,0.173 0.101,0.176C0.095,0.178 0.089,0.18 0.083,0.18C0.07,0.18 0.059,0.175 0.048,0.166C0.038,0.157 0.033,0.147 0.033,0.135C0.033,0.125 0.037,0.116 0.045,0.108C0.079,0.072 0.113,0.025 0.148,-0.031C0.162,-0.055 0.176,-0.081 0.189,-0.109C0.194,-0.119 0.199,-0.129 0.203,-0.141C0.208,-0.153 0.213,-0.167 0.218,-0.183C0.221,-0.195 0.227,-0.205 0.235,-0.211C0.244,-0.218 0.254,-0.221 0.264,-0.221C0.273,-0.221 0.282,-0.217 0.292,-0.21C0.301,-0.202 0.306,-0.192 0.306,-0.181L0.306,-0.175C0.306,-0.173 0.305,-0.171 0.305,-0.17C0.301,-0.152 0.299,-0.137 0.299,-0.126C0.299,-0.117 0.301,-0.109 0.305,-0.102C0.309,-0.096 0.316,-0.093 0.327,-0.093L0.344,-0.093L0.344,-0Z" style="fill:rgb(139,92,246);fill-rule:nonzero;"/>
                </g>
                <g transform="matrix(121.852,0,0,121.852,195.53,-1792.38)">
                    <path d="M0.397,-0.152C0.397,-0.119 0.379,-0.091 0.343,-0.068C0.327,-0.059 0.308,-0.051 0.286,-0.045L0.255,-0.039L0.222,-0.037C0.197,-0.037 0.175,-0.04 0.156,-0.046C0.139,-0.035 0.117,-0.024 0.088,-0.014L0.052,-0.003L0.037,-0.001L0.022,-0L-0.005,-0L-0.005,-0.093L0.02,-0.093L0.036,-0.094L0.056,-0.097C0.07,-0.099 0.081,-0.102 0.088,-0.106L0.084,-0.122L0.083,-0.139C0.083,-0.162 0.09,-0.187 0.105,-0.214C0.12,-0.241 0.139,-0.263 0.164,-0.279C0.16,-0.281 0.154,-0.287 0.147,-0.296C0.144,-0.305 0.143,-0.311 0.143,-0.316C0.143,-0.327 0.146,-0.336 0.154,-0.343C0.161,-0.351 0.17,-0.354 0.181,-0.354C0.191,-0.354 0.201,-0.351 0.212,-0.344L0.229,-0.332L0.249,-0.316L0.254,-0.317C0.262,-0.317 0.266,-0.316 0.269,-0.314C0.272,-0.313 0.277,-0.31 0.285,-0.305C0.297,-0.296 0.304,-0.285 0.304,-0.272C0.317,-0.262 0.329,-0.252 0.339,-0.243L0.354,-0.228L0.369,-0.211C0.388,-0.188 0.397,-0.169 0.397,-0.152ZM0.307,-0.153C0.307,-0.156 0.304,-0.161 0.299,-0.167C0.295,-0.174 0.29,-0.18 0.283,-0.186L0.277,-0.168L0.273,-0.161L0.266,-0.151C0.261,-0.141 0.252,-0.131 0.239,-0.119L0.251,-0.119L0.272,-0.12C0.277,-0.121 0.283,-0.123 0.29,-0.126C0.301,-0.132 0.307,-0.141 0.307,-0.153ZM0.223,-0.223C0.223,-0.227 0.222,-0.23 0.22,-0.232L0.213,-0.234C0.206,-0.234 0.197,-0.228 0.186,-0.217C0.176,-0.207 0.169,-0.196 0.166,-0.187C0.164,-0.179 0.163,-0.17 0.163,-0.162C0.163,-0.154 0.164,-0.148 0.166,-0.146C0.177,-0.149 0.189,-0.161 0.202,-0.179C0.216,-0.197 0.223,-0.212 0.223,-0.223Z" style="fill:rgb(139,92,246);fill-rule:nonzero;"/>
                </g>
                <g transform="matrix(121.852,0,0,121.852,267.344,-1792.38)">
                    <path d="M0.882,-0.203C0.882,-0.131 0.851,-0.069 0.789,-0.018C0.741,0.018 0.679,0.046 0.602,0.067L0.55,0.079C0.514,0.087 0.483,0.091 0.456,0.091C0.404,0.096 0.357,0.098 0.313,0.098C0.274,0.098 0.243,0.097 0.218,0.094C0.193,0.09 0.172,0.085 0.153,0.077C0.122,0.065 0.1,0.045 0.086,0.018C0.081,0.007 0.078,-0.005 0.076,-0.02L0.073,-0.043L0.072,-0.071C0.072,-0.102 0.088,-0.138 0.119,-0.179C0.144,-0.212 0.167,-0.237 0.188,-0.252C0.203,-0.264 0.219,-0.27 0.235,-0.27C0.247,-0.27 0.256,-0.266 0.262,-0.26C0.269,-0.255 0.273,-0.247 0.273,-0.236C0.273,-0.228 0.271,-0.221 0.267,-0.213C0.263,-0.205 0.256,-0.197 0.247,-0.188L0.202,-0.141C0.181,-0.116 0.168,-0.094 0.165,-0.076L0.164,-0.066C0.164,-0.041 0.181,-0.022 0.213,-0.01C0.241,-0.001 0.28,0.004 0.332,0.004L0.365,0.003L0.393,0.002L0.413,0.002L0.421,0.001L0.441,-0L0.46,-0.003C0.485,-0.003 0.511,-0.004 0.536,-0.007C0.543,-0.008 0.549,-0.009 0.554,-0.009C0.559,-0.01 0.566,-0.011 0.573,-0.013L0.607,-0.021C0.644,-0.031 0.679,-0.046 0.712,-0.064C0.763,-0.093 0.791,-0.131 0.797,-0.178L0.798,-0.188L0.798,-0.207L0.796,-0.236C0.796,-0.244 0.795,-0.253 0.792,-0.264L0.776,-0.333C0.776,-0.34 0.778,-0.347 0.783,-0.354C0.788,-0.359 0.796,-0.363 0.807,-0.368L0.815,-0.369C0.831,-0.369 0.847,-0.349 0.863,-0.31C0.865,-0.305 0.867,-0.299 0.868,-0.293C0.87,-0.287 0.872,-0.28 0.874,-0.271C0.876,-0.262 0.879,-0.249 0.881,-0.231L0.882,-0.217L0.882,-0.203ZM0.499,0.177L0.499,0.182C0.499,0.185 0.499,0.187 0.498,0.188L0.497,0.198C0.495,0.211 0.487,0.224 0.474,0.237C0.46,0.249 0.447,0.255 0.433,0.255L0.425,0.255C0.41,0.253 0.4,0.247 0.392,0.238C0.385,0.229 0.381,0.217 0.381,0.204L0.381,0.193L0.382,0.184L0.385,0.177C0.389,0.164 0.397,0.152 0.41,0.141C0.423,0.132 0.436,0.128 0.451,0.128L0.458,0.128C0.486,0.133 0.499,0.149 0.499,0.177Z" style="fill:rgb(139,92,246);fill-rule:nonzero;"/>
                </g>
                <g transform="matrix(121.852,0,0,121.852,374.976,-1792.38)">
                    <path d="M0.221,-0.462C0.221,-0.454 0.22,-0.445 0.216,-0.435L0.186,-0.347L0.15,-0.233C0.138,-0.189 0.132,-0.16 0.132,-0.146C0.132,-0.126 0.134,-0.113 0.137,-0.106C0.142,-0.098 0.151,-0.093 0.165,-0.093L0.191,-0.093L0.191,-0L0.164,-0C0.131,-0 0.104,-0.01 0.082,-0.029C0.059,-0.052 0.047,-0.086 0.047,-0.131C0.047,-0.156 0.053,-0.192 0.063,-0.238C0.067,-0.258 0.072,-0.278 0.079,-0.297C0.08,-0.304 0.083,-0.313 0.086,-0.324C0.09,-0.335 0.094,-0.349 0.099,-0.364L0.116,-0.415L0.135,-0.468C0.139,-0.48 0.146,-0.489 0.155,-0.495C0.164,-0.501 0.173,-0.504 0.183,-0.504C0.193,-0.504 0.202,-0.501 0.21,-0.494C0.217,-0.487 0.221,-0.477 0.221,-0.462Z" style="fill:rgb(139,92,246);fill-rule:nonzero;"/>
                </g>
                <g transform="matrix(121.852,0,0,121.852,397.228,-1792.38)">
                    <path d="M0.232,-0.48L0.232,-0.475C0.232,-0.472 0.232,-0.47 0.231,-0.469L0.23,-0.459C0.228,-0.444 0.221,-0.431 0.208,-0.419C0.194,-0.407 0.181,-0.401 0.166,-0.401L0.158,-0.402C0.145,-0.404 0.134,-0.41 0.125,-0.419C0.118,-0.429 0.115,-0.44 0.115,-0.453L0.115,-0.467L0.119,-0.48C0.123,-0.495 0.131,-0.506 0.144,-0.515C0.157,-0.524 0.17,-0.529 0.184,-0.529L0.192,-0.528C0.219,-0.523 0.232,-0.507 0.232,-0.48ZM0.368,-0.133C0.368,-0.126 0.366,-0.119 0.361,-0.113L0.346,-0.098C0.346,-0.095 0.348,-0.093 0.353,-0.093L0.367,-0.093L0.367,-0L0.346,-0L0.323,-0.001L0.313,-0.003L0.302,-0.007C0.291,-0.011 0.282,-0.017 0.277,-0.025L0.27,-0.038L0.263,-0.05L0.221,-0.033L0.176,-0.018C0.153,-0.013 0.132,-0.008 0.113,-0.005L0.083,-0.001L0.055,-0L-0.005,-0L-0.005,-0.093L0.06,-0.093C0.094,-0.093 0.125,-0.097 0.151,-0.103C0.178,-0.11 0.203,-0.119 0.225,-0.131L0.201,-0.285L0.184,-0.242L0.164,-0.186L0.148,-0.145L0.145,-0.138L0.141,-0.132C0.141,-0.131 0.137,-0.128 0.131,-0.123C0.129,-0.122 0.126,-0.12 0.123,-0.119C0.119,-0.117 0.114,-0.117 0.108,-0.117C0.098,-0.117 0.089,-0.12 0.081,-0.127C0.073,-0.135 0.069,-0.146 0.069,-0.158C0.069,-0.163 0.069,-0.168 0.071,-0.172L0.09,-0.23C0.103,-0.268 0.118,-0.299 0.133,-0.324C0.152,-0.355 0.171,-0.373 0.19,-0.38L0.201,-0.381L0.208,-0.382C0.233,-0.382 0.255,-0.368 0.273,-0.339C0.286,-0.318 0.295,-0.29 0.299,-0.256L0.311,-0.163C0.32,-0.167 0.328,-0.168 0.336,-0.168C0.342,-0.168 0.348,-0.167 0.354,-0.164C0.358,-0.162 0.362,-0.156 0.365,-0.147C0.367,-0.142 0.368,-0.137 0.368,-0.133Z" style="fill:rgb(139,92,246);fill-rule:nonzero;"/>
                </g>
                <g transform="matrix(121.852,0,0,121.852,441.316,-1792.38)">
                    <path d="M0.219,-0.433L0.218,-0.424C0.218,-0.42 0.218,-0.417 0.217,-0.416C0.215,-0.405 0.209,-0.394 0.199,-0.383L0.187,-0.375C0.18,-0.371 0.173,-0.369 0.165,-0.369L0.16,-0.369C0.148,-0.371 0.139,-0.376 0.132,-0.383C0.127,-0.39 0.124,-0.4 0.124,-0.411L0.125,-0.421C0.125,-0.425 0.126,-0.429 0.127,-0.433C0.13,-0.443 0.137,-0.453 0.147,-0.461C0.157,-0.469 0.169,-0.473 0.181,-0.473L0.187,-0.472C0.208,-0.469 0.219,-0.456 0.219,-0.433ZM0.115,-0.433L0.114,-0.424C0.114,-0.42 0.114,-0.417 0.113,-0.416C0.111,-0.406 0.105,-0.395 0.094,-0.383C0.084,-0.374 0.073,-0.369 0.061,-0.369L0.055,-0.37C0.045,-0.372 0.036,-0.376 0.028,-0.384C0.023,-0.392 0.02,-0.401 0.02,-0.411L0.021,-0.42L0.023,-0.433C0.026,-0.443 0.033,-0.452 0.042,-0.461C0.052,-0.469 0.064,-0.473 0.077,-0.473L0.083,-0.472C0.105,-0.469 0.115,-0.456 0.115,-0.433ZM0.239,-0L0.22,-0C0.198,-0 0.178,-0.006 0.16,-0.017C0.146,-0.026 0.134,-0.038 0.125,-0.053C0.111,-0.038 0.091,-0.025 0.064,-0.013C0.041,-0.004 0.022,-0 0.008,-0L-0.005,-0L-0.005,-0.093L0.01,-0.093C0.034,-0.093 0.058,-0.105 0.08,-0.128C0.102,-0.151 0.118,-0.18 0.126,-0.213C0.128,-0.223 0.134,-0.231 0.142,-0.236C0.151,-0.241 0.16,-0.244 0.169,-0.244C0.18,-0.244 0.189,-0.241 0.197,-0.236C0.205,-0.23 0.208,-0.222 0.208,-0.212L0.208,-0.205L0.196,-0.159L0.193,-0.142L0.192,-0.129C0.192,-0.118 0.195,-0.109 0.199,-0.103C0.203,-0.097 0.211,-0.093 0.222,-0.093L0.239,-0.093L0.239,-0Z" style="fill:rgb(139,92,246);fill-rule:nonzero;"/>
                </g>
                <g transform="matrix(121.852,0,0,121.852,469.518,-1792.38)">
                    <path d="M0.235,-0.443L0.235,-0.438C0.235,-0.435 0.235,-0.433 0.234,-0.432L0.233,-0.422C0.231,-0.408 0.223,-0.394 0.21,-0.383C0.197,-0.371 0.183,-0.365 0.168,-0.365L0.161,-0.365C0.146,-0.367 0.135,-0.373 0.127,-0.383C0.121,-0.392 0.118,-0.403 0.118,-0.416L0.118,-0.431L0.122,-0.443C0.125,-0.457 0.133,-0.469 0.146,-0.478C0.159,-0.487 0.173,-0.492 0.187,-0.492L0.195,-0.491C0.222,-0.487 0.235,-0.471 0.235,-0.443ZM0.219,-0.257C0.219,-0.202 0.196,-0.146 0.151,-0.087C0.106,-0.029 0.058,-0 0.008,-0L-0.005,-0L-0.005,-0.093L0.008,-0.093C0.04,-0.093 0.068,-0.112 0.092,-0.15C0.11,-0.18 0.124,-0.218 0.132,-0.263C0.134,-0.276 0.139,-0.285 0.147,-0.291C0.155,-0.297 0.164,-0.3 0.172,-0.3C0.184,-0.3 0.195,-0.296 0.205,-0.288C0.214,-0.28 0.219,-0.27 0.219,-0.257Z" style="fill:rgb(139,92,246);fill-rule:nonzero;"/>
                </g>
                <g transform="matrix(121.852,0,0,121.852,497.899,-1792.38)">
                    <path d="M0.175,-0.44C0.175,-0.285 0.156,-0.152 0.117,-0.041C0.113,-0.029 0.106,-0.02 0.095,-0.012C0.085,-0.004 0.074,-0 0.063,-0C0.053,-0 0.045,-0.004 0.038,-0.01C0.032,-0.016 0.028,-0.026 0.028,-0.04C0.028,-0.05 0.031,-0.063 0.036,-0.076C0.051,-0.119 0.064,-0.178 0.075,-0.252C0.086,-0.326 0.091,-0.396 0.091,-0.46C0.091,-0.474 0.095,-0.485 0.102,-0.493C0.11,-0.501 0.118,-0.505 0.129,-0.505C0.14,-0.505 0.15,-0.499 0.16,-0.487C0.17,-0.475 0.175,-0.46 0.175,-0.44Z" style="fill:rgb(139,92,246);fill-rule:nonzero;"/>
                </g>
                <g transform="matrix(121.852,0,0,121.852,548.234,-1792.38)">
                    <path d="M0.221,-0.462C0.221,-0.454 0.22,-0.445 0.216,-0.435L0.186,-0.347L0.15,-0.233C0.138,-0.189 0.132,-0.16 0.132,-0.146C0.132,-0.126 0.134,-0.113 0.137,-0.106C0.142,-0.098 0.151,-0.093 0.165,-0.093L0.191,-0.093L0.191,-0L0.164,-0C0.131,-0 0.104,-0.01 0.082,-0.029C0.059,-0.052 0.047,-0.086 0.047,-0.131C0.047,-0.156 0.053,-0.192 0.063,-0.238C0.067,-0.258 0.072,-0.278 0.079,-0.297C0.08,-0.304 0.083,-0.313 0.086,-0.324C0.09,-0.335 0.094,-0.349 0.099,-0.364L0.116,-0.415L0.135,-0.468C0.139,-0.48 0.146,-0.489 0.155,-0.495C0.164,-0.501 0.173,-0.504 0.183,-0.504C0.193,-0.504 0.202,-0.501 0.21,-0.494C0.217,-0.487 0.221,-0.477 0.221,-0.462Z" style="fill:rgb(139,92,246);fill-rule:nonzero;"/>
                </g>
                <g transform="matrix(121.852,0,0,121.852,570.486,-1792.38)">
                    <path d="M0.219,-0.257C0.219,-0.202 0.196,-0.146 0.151,-0.087C0.106,-0.029 0.058,-0 0.008,-0L-0.005,-0L-0.005,-0.093L0.008,-0.093C0.04,-0.093 0.068,-0.112 0.092,-0.15C0.11,-0.18 0.124,-0.218 0.132,-0.263C0.134,-0.276 0.139,-0.285 0.147,-0.291C0.155,-0.297 0.164,-0.3 0.172,-0.3C0.184,-0.3 0.195,-0.296 0.205,-0.288C0.214,-0.28 0.219,-0.27 0.219,-0.257ZM0.161,0.177L0.161,0.182C0.161,0.185 0.161,0.187 0.16,0.188L0.159,0.198C0.157,0.211 0.149,0.224 0.136,0.237C0.122,0.249 0.109,0.255 0.094,0.255L0.086,0.255C0.074,0.253 0.063,0.247 0.053,0.237C0.047,0.228 0.043,0.217 0.043,0.204L0.043,0.193L0.044,0.184L0.047,0.177C0.05,0.163 0.058,0.151 0.072,0.142L0.091,0.131C0.094,0.13 0.098,0.13 0.101,0.129C0.105,0.128 0.108,0.128 0.112,0.128L0.121,0.128C0.148,0.133 0.161,0.149 0.161,0.177Z" style="fill:rgb(139,92,246);fill-rule:nonzero;"/>
                </g>
                <g transform="matrix(121.852,0,0,121.852,-593.95,-1670.52)">
                    <path d="M0.364,-0L0.345,-0C0.329,-0 0.312,-0.005 0.294,-0.015C0.276,-0.025 0.262,-0.036 0.252,-0.048C0.238,-0.022 0.22,0.003 0.199,0.026C0.189,0.037 0.177,0.049 0.162,0.062C0.147,0.075 0.132,0.086 0.118,0.094L0.106,0.1L0.094,0.102C0.081,0.102 0.07,0.097 0.06,0.086C0.051,0.075 0.046,0.063 0.046,0.051C0.046,0.038 0.052,0.028 0.064,0.02C0.076,0.013 0.087,0.006 0.097,-0.001L0.112,-0.014L0.129,-0.029C0.149,-0.048 0.167,-0.069 0.182,-0.092C0.193,-0.11 0.204,-0.135 0.216,-0.168C0.223,-0.193 0.23,-0.221 0.236,-0.253C0.238,-0.265 0.243,-0.274 0.25,-0.28C0.258,-0.286 0.266,-0.289 0.276,-0.289C0.288,-0.289 0.299,-0.284 0.309,-0.276C0.319,-0.268 0.325,-0.259 0.325,-0.248L0.324,-0.24L0.319,-0.221L0.314,-0.197L0.312,-0.174L0.311,-0.153C0.311,-0.134 0.313,-0.119 0.318,-0.109C0.324,-0.098 0.334,-0.093 0.347,-0.093L0.364,-0.093L0.364,-0Z" style="fill:rgb(139,92,246);fill-rule:nonzero;"/>
                </g>
                <g transform="matrix(121.852,0,0,121.852,-550.695,-1670.52)">
                    <path d="M0.239,-0L0.22,-0C0.198,-0 0.178,-0.006 0.16,-0.017C0.146,-0.026 0.134,-0.038 0.125,-0.053C0.111,-0.038 0.091,-0.025 0.064,-0.013C0.041,-0.004 0.022,-0 0.008,-0L-0.005,-0L-0.005,-0.093L0.01,-0.093C0.034,-0.093 0.058,-0.105 0.08,-0.128C0.102,-0.151 0.118,-0.18 0.126,-0.213C0.128,-0.223 0.134,-0.231 0.142,-0.236C0.151,-0.241 0.16,-0.244 0.169,-0.244C0.18,-0.244 0.189,-0.241 0.197,-0.236C0.205,-0.23 0.208,-0.222 0.208,-0.212L0.208,-0.205L0.196,-0.159L0.193,-0.142L0.192,-0.129C0.192,-0.118 0.195,-0.109 0.199,-0.103C0.203,-0.097 0.211,-0.093 0.222,-0.093L0.239,-0.093L0.239,-0ZM0.218,0.097L0.217,0.106C0.217,0.11 0.216,0.113 0.216,0.114C0.214,0.124 0.208,0.135 0.197,0.147L0.181,0.158C0.175,0.161 0.169,0.162 0.164,0.162L0.158,0.162C0.148,0.16 0.139,0.155 0.131,0.146C0.125,0.14 0.123,0.131 0.123,0.12L0.124,0.109L0.125,0.098C0.128,0.087 0.135,0.077 0.146,0.069C0.157,0.061 0.168,0.058 0.179,0.058L0.186,0.058C0.207,0.062 0.218,0.075 0.218,0.097ZM0.114,0.097L0.113,0.106C0.113,0.11 0.112,0.113 0.112,0.114C0.11,0.127 0.104,0.137 0.093,0.146L0.077,0.157C0.071,0.16 0.065,0.162 0.06,0.162L0.054,0.161C0.042,0.159 0.033,0.154 0.027,0.147C0.021,0.14 0.019,0.131 0.019,0.12L0.019,0.109L0.022,0.098C0.025,0.086 0.032,0.076 0.042,0.069C0.052,0.061 0.063,0.058 0.075,0.058L0.082,0.058C0.103,0.062 0.114,0.075 0.114,0.097Z" style="fill:rgb(139,92,246);fill-rule:nonzero;"/>
                </g>
                <g transform="matrix(121.852,0,0,121.852,-522.492,-1670.52)">
                    <path d="M0.397,-0.152C0.397,-0.119 0.379,-0.091 0.343,-0.068C0.327,-0.059 0.308,-0.051 0.286,-0.045L0.255,-0.039L0.222,-0.037C0.197,-0.037 0.175,-0.04 0.156,-0.046C0.139,-0.035 0.117,-0.024 0.088,-0.014L0.052,-0.003L0.037,-0.001L0.022,-0L-0.005,-0L-0.005,-0.093L0.02,-0.093L0.036,-0.094L0.056,-0.097C0.07,-0.099 0.081,-0.102 0.088,-0.106L0.084,-0.122L0.083,-0.139C0.083,-0.162 0.09,-0.187 0.105,-0.214C0.12,-0.241 0.139,-0.263 0.164,-0.279C0.16,-0.281 0.154,-0.287 0.147,-0.296C0.144,-0.305 0.143,-0.311 0.143,-0.316C0.143,-0.327 0.146,-0.336 0.154,-0.343C0.161,-0.351 0.17,-0.354 0.181,-0.354C0.191,-0.354 0.201,-0.351 0.212,-0.344L0.229,-0.332L0.249,-0.316L0.254,-0.317C0.262,-0.317 0.266,-0.316 0.269,-0.314C0.272,-0.313 0.277,-0.31 0.285,-0.305C0.297,-0.296 0.304,-0.285 0.304,-0.272C0.317,-0.262 0.329,-0.252 0.339,-0.243L0.354,-0.228L0.369,-0.211C0.388,-0.188 0.397,-0.169 0.397,-0.152ZM0.307,-0.153C0.307,-0.156 0.304,-0.161 0.299,-0.167C0.295,-0.174 0.29,-0.18 0.283,-0.186L0.277,-0.168L0.273,-0.161L0.266,-0.151C0.261,-0.141 0.252,-0.131 0.239,-0.119L0.251,-0.119L0.272,-0.12C0.277,-0.121 0.283,-0.123 0.29,-0.126C0.301,-0.132 0.307,-0.141 0.307,-0.153ZM0.223,-0.223C0.223,-0.227 0.222,-0.23 0.22,-0.232L0.213,-0.234C0.206,-0.234 0.197,-0.228 0.186,-0.217C0.176,-0.207 0.169,-0.196 0.166,-0.187C0.164,-0.179 0.163,-0.17 0.163,-0.162C0.163,-0.154 0.164,-0.148 0.166,-0.146C0.177,-0.149 0.189,-0.161 0.202,-0.179C0.216,-0.197 0.223,-0.212 0.223,-0.223Z" style="fill:rgb(139,92,246);fill-rule:nonzero;"/>
                </g>
                <g transform="matrix(121.852,0,0,121.852,-474.478,-1670.52)">
                    <path d="M0.324,-0.091C0.324,-0.062 0.303,-0.02 0.26,0.035C0.244,0.055 0.224,0.077 0.199,0.101C0.186,0.114 0.163,0.133 0.132,0.157L0.119,0.164L0.105,0.166C0.093,0.166 0.082,0.161 0.072,0.15C0.068,0.146 0.064,0.14 0.062,0.134C0.06,0.128 0.059,0.122 0.058,0.116C0.058,0.112 0.06,0.106 0.063,0.098C0.064,0.095 0.069,0.09 0.076,0.084L0.103,0.064L0.13,0.042L0.156,0.019C0.165,0.012 0.174,0.003 0.183,-0.007C0.218,-0.044 0.236,-0.07 0.236,-0.085C0.236,-0.093 0.219,-0.112 0.185,-0.143L0.148,-0.174C0.138,-0.183 0.132,-0.193 0.132,-0.205C0.132,-0.218 0.138,-0.23 0.148,-0.24C0.159,-0.25 0.171,-0.255 0.184,-0.255C0.193,-0.255 0.202,-0.252 0.209,-0.246L0.228,-0.229L0.247,-0.21L0.264,-0.193L0.282,-0.172C0.31,-0.138 0.324,-0.111 0.324,-0.091Z" style="fill:rgb(139,92,246);fill-rule:nonzero;"/>
                </g>
                <g transform="matrix(121.852,0,0,121.852,-411.172,-1670.52)">
                    <path d="M0.344,-0L0.313,-0L0.3,-0.002C0.295,-0.003 0.289,-0.005 0.282,-0.008C0.272,-0.012 0.261,-0.018 0.248,-0.029C0.233,0.002 0.211,0.037 0.183,0.078C0.175,0.09 0.163,0.105 0.148,0.124L0.116,0.164C0.112,0.169 0.107,0.173 0.101,0.176C0.095,0.178 0.089,0.18 0.083,0.18C0.07,0.18 0.059,0.175 0.048,0.166C0.038,0.157 0.033,0.147 0.033,0.135C0.033,0.125 0.037,0.116 0.045,0.108C0.079,0.072 0.113,0.025 0.148,-0.031C0.162,-0.055 0.176,-0.081 0.189,-0.109C0.194,-0.119 0.199,-0.129 0.203,-0.141C0.208,-0.153 0.213,-0.167 0.218,-0.183C0.221,-0.195 0.227,-0.205 0.235,-0.211C0.244,-0.218 0.254,-0.221 0.264,-0.221C0.273,-0.221 0.282,-0.217 0.292,-0.21C0.301,-0.202 0.306,-0.192 0.306,-0.181L0.306,-0.175C0.306,-0.173 0.305,-0.171 0.305,-0.17C0.301,-0.152 0.299,-0.137 0.299,-0.126C0.299,-0.117 0.301,-0.109 0.305,-0.102C0.309,-0.096 0.316,-0.093 0.327,-0.093L0.344,-0.093L0.344,-0Z" style="fill:rgb(139,92,246);fill-rule:nonzero;"/>
                </g>
                <g transform="matrix(121.852,0,0,121.852,-370.356,-1670.52)">
                    <path d="M0.239,-0L0.22,-0C0.198,-0 0.178,-0.006 0.16,-0.017C0.146,-0.026 0.134,-0.038 0.125,-0.053C0.111,-0.038 0.091,-0.025 0.064,-0.013C0.041,-0.004 0.022,-0 0.008,-0L-0.005,-0L-0.005,-0.093L0.01,-0.093C0.034,-0.093 0.058,-0.105 0.08,-0.128C0.102,-0.151 0.118,-0.18 0.126,-0.213C0.128,-0.223 0.134,-0.231 0.142,-0.236C0.151,-0.241 0.16,-0.244 0.169,-0.244C0.18,-0.244 0.189,-0.241 0.197,-0.236C0.205,-0.23 0.208,-0.222 0.208,-0.212L0.208,-0.205L0.196,-0.159L0.193,-0.142L0.192,-0.129C0.192,-0.118 0.195,-0.109 0.199,-0.103C0.203,-0.097 0.211,-0.093 0.222,-0.093L0.239,-0.093L0.239,-0ZM0.218,0.097L0.217,0.106C0.217,0.11 0.216,0.113 0.216,0.114C0.214,0.124 0.208,0.135 0.197,0.147L0.181,0.158C0.175,0.161 0.169,0.162 0.164,0.162L0.158,0.162C0.148,0.16 0.139,0.155 0.131,0.146C0.125,0.14 0.123,0.131 0.123,0.12L0.124,0.109L0.125,0.098C0.128,0.087 0.135,0.077 0.146,0.069C0.157,0.061 0.168,0.058 0.179,0.058L0.186,0.058C0.207,0.062 0.218,0.075 0.218,0.097ZM0.114,0.097L0.113,0.106C0.113,0.11 0.112,0.113 0.112,0.114C0.11,0.127 0.104,0.137 0.093,0.146L0.077,0.157C0.071,0.16 0.065,0.162 0.06,0.162L0.054,0.161C0.042,0.159 0.033,0.154 0.027,0.147C0.021,0.14 0.019,0.131 0.019,0.12L0.019,0.109L0.022,0.098C0.025,0.086 0.032,0.076 0.042,0.069C0.052,0.061 0.063,0.058 0.075,0.058L0.082,0.058C0.103,0.062 0.114,0.075 0.114,0.097Z" style="fill:rgb(139,92,246);fill-rule:nonzero;"/>
                </g>
                <g transform="matrix(121.852,0,0,121.852,-342.154,-1670.52)">
                    <path d="M0.239,-0L0.22,-0C0.198,-0 0.178,-0.006 0.16,-0.017C0.146,-0.026 0.134,-0.038 0.125,-0.053C0.111,-0.038 0.091,-0.025 0.064,-0.013C0.041,-0.004 0.022,-0 0.008,-0L-0.005,-0L-0.005,-0.093L0.01,-0.093C0.034,-0.093 0.058,-0.105 0.08,-0.128C0.102,-0.151 0.118,-0.18 0.126,-0.213C0.128,-0.223 0.134,-0.231 0.142,-0.236C0.151,-0.241 0.16,-0.244 0.169,-0.244C0.18,-0.244 0.189,-0.241 0.197,-0.236C0.205,-0.23 0.208,-0.222 0.208,-0.212L0.208,-0.205L0.196,-0.159L0.193,-0.142L0.192,-0.129C0.192,-0.118 0.195,-0.109 0.199,-0.103C0.203,-0.097 0.211,-0.093 0.222,-0.093L0.239,-0.093L0.239,-0ZM0.218,0.097L0.217,0.106C0.217,0.11 0.216,0.113 0.216,0.114C0.214,0.124 0.208,0.135 0.197,0.147L0.181,0.158C0.175,0.161 0.169,0.162 0.164,0.162L0.158,0.162C0.148,0.16 0.139,0.155 0.131,0.146C0.125,0.14 0.123,0.131 0.123,0.12L0.124,0.109L0.125,0.098C0.128,0.087 0.135,0.077 0.146,0.069C0.157,0.061 0.168,0.058 0.179,0.058L0.186,0.058C0.207,0.062 0.218,0.075 0.218,0.097ZM0.114,0.097L0.113,0.106C0.113,0.11 0.112,0.113 0.112,0.114C0.11,0.127 0.104,0.137 0.093,0.146L0.077,0.157C0.071,0.16 0.065,0.162 0.06,0.162L0.054,0.161C0.042,0.159 0.033,0.154 0.027,0.147C0.021,0.14 0.019,0.131 0.019,0.12L0.019,0.109L0.022,0.098C0.025,0.086 0.032,0.076 0.042,0.069C0.052,0.061 0.063,0.058 0.075,0.058L0.082,0.058C0.103,0.062 0.114,0.075 0.114,0.097Z" style="fill:rgb(139,92,246);fill-rule:nonzero;"/>
                </g>
                <g transform="matrix(121.852,0,0,121.852,-313.952,-1670.52)">
                    <path d="M0.22,-0.463L0.22,-0.458C0.22,-0.454 0.22,-0.452 0.219,-0.452L0.218,-0.442C0.216,-0.428 0.208,-0.414 0.195,-0.403C0.182,-0.391 0.168,-0.385 0.153,-0.385L0.146,-0.385C0.133,-0.387 0.122,-0.393 0.112,-0.403C0.106,-0.412 0.103,-0.423 0.103,-0.436L0.103,-0.449L0.106,-0.463C0.11,-0.476 0.118,-0.487 0.131,-0.497C0.144,-0.507 0.157,-0.512 0.171,-0.512L0.18,-0.511C0.207,-0.507 0.22,-0.491 0.22,-0.463ZM0.286,-0L0.255,-0C0.242,-0 0.23,-0.001 0.217,-0.003C0.205,-0.005 0.194,-0.008 0.187,-0.013C0.169,-0.021 0.155,-0.034 0.144,-0.051C0.129,-0.039 0.106,-0.027 0.074,-0.015L0.038,-0.004L0.022,-0.001L0.01,-0L-0.007,-0L-0.007,-0.093L0.018,-0.093C0.036,-0.093 0.06,-0.101 0.089,-0.115C0.118,-0.13 0.133,-0.141 0.133,-0.149C0.133,-0.154 0.13,-0.157 0.125,-0.159L0.111,-0.162L0.093,-0.162L0.062,-0.162L0.045,-0.163C0.04,-0.163 0.036,-0.163 0.033,-0.165C0.023,-0.167 0.018,-0.173 0.018,-0.182C0.018,-0.215 0.045,-0.248 0.098,-0.281C0.145,-0.309 0.189,-0.323 0.228,-0.323C0.242,-0.323 0.251,-0.321 0.257,-0.316C0.261,-0.314 0.265,-0.308 0.27,-0.297C0.273,-0.286 0.274,-0.278 0.274,-0.273C0.274,-0.254 0.268,-0.227 0.254,-0.194C0.242,-0.17 0.23,-0.148 0.217,-0.128L0.215,-0.124L0.215,-0.118C0.215,-0.11 0.219,-0.104 0.226,-0.099C0.234,-0.095 0.244,-0.093 0.257,-0.093L0.286,-0.093L0.286,-0ZM0.193,-0.231C0.192,-0.232 0.189,-0.233 0.185,-0.233C0.175,-0.233 0.164,-0.23 0.151,-0.225C0.138,-0.221 0.131,-0.216 0.131,-0.213C0.131,-0.21 0.135,-0.209 0.143,-0.209L0.152,-0.209L0.163,-0.209C0.17,-0.209 0.175,-0.209 0.179,-0.208L0.189,-0.221C0.19,-0.222 0.191,-0.226 0.193,-0.231Z" style="fill:rgb(139,92,246);fill-rule:nonzero;"/>
                </g>
                <g transform="matrix(121.852,0,0,121.852,-280.514,-1670.52)">
                    <path d="M0.262,-0.433L0.261,-0.424C0.261,-0.42 0.26,-0.417 0.26,-0.416C0.259,-0.405 0.253,-0.394 0.241,-0.384L0.225,-0.373C0.22,-0.37 0.214,-0.369 0.208,-0.369L0.202,-0.369C0.192,-0.371 0.183,-0.376 0.175,-0.384C0.169,-0.391 0.167,-0.4 0.167,-0.411L0.167,-0.421C0.167,-0.427 0.168,-0.431 0.17,-0.433C0.173,-0.443 0.18,-0.453 0.19,-0.461C0.2,-0.469 0.211,-0.473 0.223,-0.473L0.23,-0.472C0.251,-0.469 0.262,-0.456 0.262,-0.433ZM0.158,-0.433L0.157,-0.424C0.157,-0.42 0.157,-0.417 0.156,-0.416C0.154,-0.407 0.148,-0.396 0.137,-0.383C0.134,-0.38 0.129,-0.377 0.121,-0.373L0.104,-0.369L0.098,-0.37C0.088,-0.372 0.079,-0.376 0.071,-0.384C0.066,-0.392 0.063,-0.401 0.063,-0.411L0.063,-0.42L0.066,-0.433C0.068,-0.443 0.075,-0.452 0.086,-0.46C0.097,-0.469 0.108,-0.473 0.12,-0.473L0.126,-0.472C0.147,-0.469 0.158,-0.456 0.158,-0.433ZM0.219,-0.257C0.219,-0.202 0.196,-0.146 0.151,-0.087C0.106,-0.029 0.058,-0 0.008,-0L-0.005,-0L-0.005,-0.093L0.008,-0.093C0.04,-0.093 0.068,-0.112 0.092,-0.15C0.11,-0.18 0.124,-0.218 0.132,-0.263C0.134,-0.276 0.139,-0.285 0.147,-0.291C0.155,-0.297 0.164,-0.3 0.172,-0.3C0.184,-0.3 0.195,-0.296 0.205,-0.288C0.214,-0.28 0.219,-0.27 0.219,-0.257Z" style="fill:rgb(139,92,246);fill-rule:nonzero;"/>
                </g>
                <g transform="matrix(121.852,0,0,121.852,-222.92,-1670.52)">
                    <path d="M0.175,-0.44C0.175,-0.285 0.156,-0.152 0.117,-0.041C0.113,-0.029 0.106,-0.02 0.095,-0.012C0.085,-0.004 0.074,-0 0.063,-0C0.053,-0 0.045,-0.004 0.038,-0.01C0.032,-0.016 0.028,-0.026 0.028,-0.04C0.028,-0.05 0.031,-0.063 0.036,-0.076C0.051,-0.119 0.064,-0.178 0.075,-0.252C0.086,-0.326 0.091,-0.396 0.091,-0.46C0.091,-0.474 0.095,-0.485 0.102,-0.493C0.11,-0.501 0.118,-0.505 0.129,-0.505C0.14,-0.505 0.15,-0.499 0.16,-0.487C0.17,-0.475 0.175,-0.46 0.175,-0.44Z" style="fill:rgb(139,92,246);fill-rule:nonzero;"/>
                </g>
                <g transform="matrix(121.852,0,0,121.852,-196.384,-1670.52)">
                    <path d="M0.297,-0.125L0.297,-0.12C0.297,-0.117 0.297,-0.115 0.296,-0.115L0.293,-0.105C0.275,-0.05 0.251,-0.003 0.222,0.036C0.198,0.074 0.163,0.116 0.117,0.163C0.11,0.168 0.103,0.173 0.095,0.177C0.087,0.181 0.08,0.183 0.072,0.183C0.06,0.183 0.05,0.179 0.041,0.17C0.033,0.161 0.029,0.151 0.029,0.14C0.029,0.132 0.03,0.125 0.032,0.121C0.035,0.117 0.04,0.111 0.047,0.103C0.083,0.07 0.115,0.035 0.141,-0.003C0.168,-0.041 0.191,-0.084 0.21,-0.131C0.213,-0.141 0.219,-0.149 0.229,-0.157C0.238,-0.163 0.247,-0.166 0.256,-0.166C0.265,-0.166 0.275,-0.162 0.284,-0.155C0.293,-0.147 0.297,-0.137 0.297,-0.125Z" style="fill:rgb(139,92,246);fill-rule:nonzero;"/>
                </g>
                <g transform="matrix(121.852,0,0,121.852,-136.35,-1670.52)">
                    <path d="M0.625,-0.307L0.624,-0.3C0.624,-0.284 0.611,-0.26 0.583,-0.229C0.556,-0.198 0.537,-0.182 0.524,-0.182L0.52,-0.183C0.516,-0.185 0.514,-0.191 0.514,-0.201L0.515,-0.215C0.516,-0.22 0.518,-0.224 0.52,-0.229C0.511,-0.227 0.502,-0.224 0.494,-0.22L0.479,-0.212L0.463,-0.201C0.442,-0.186 0.431,-0.172 0.428,-0.16C0.427,-0.151 0.437,-0.143 0.457,-0.135C0.488,-0.125 0.509,-0.117 0.519,-0.112C0.542,-0.099 0.553,-0.079 0.553,-0.054L0.553,-0.042L0.551,-0.034C0.544,0.011 0.515,0.053 0.463,0.092C0.409,0.134 0.348,0.155 0.283,0.155C0.269,0.155 0.253,0.153 0.233,0.15C0.183,0.143 0.143,0.122 0.114,0.088C0.101,0.073 0.09,0.055 0.083,0.034C0.076,0.013 0.072,-0.008 0.072,-0.03C0.072,-0.065 0.08,-0.101 0.096,-0.139C0.112,-0.177 0.136,-0.215 0.167,-0.252C0.176,-0.26 0.183,-0.267 0.19,-0.271L0.201,-0.275L0.213,-0.277C0.225,-0.277 0.235,-0.273 0.242,-0.265C0.25,-0.257 0.253,-0.247 0.253,-0.234L0.253,-0.229C0.253,-0.226 0.253,-0.225 0.252,-0.224L0.25,-0.216C0.248,-0.212 0.245,-0.206 0.239,-0.198C0.227,-0.183 0.216,-0.168 0.207,-0.154L0.194,-0.134L0.184,-0.113C0.171,-0.087 0.165,-0.063 0.165,-0.042C0.165,-0.017 0.172,0.004 0.188,0.019C0.203,0.034 0.227,0.046 0.26,0.054C0.272,0.056 0.285,0.057 0.297,0.057C0.337,0.057 0.373,0.048 0.404,0.03C0.435,0.013 0.453,-0.008 0.458,-0.033L0.458,-0.036L0.458,-0.038C0.458,-0.049 0.447,-0.059 0.423,-0.07L0.357,-0.092C0.333,-0.103 0.321,-0.118 0.321,-0.136L0.322,-0.146C0.327,-0.173 0.346,-0.203 0.378,-0.235C0.386,-0.242 0.4,-0.254 0.422,-0.271L0.477,-0.307L0.5,-0.319L0.523,-0.331L0.539,-0.337L0.563,-0.346L0.572,-0.348L0.58,-0.349C0.592,-0.349 0.603,-0.345 0.612,-0.337C0.62,-0.329 0.625,-0.319 0.625,-0.307Z" style="fill:rgb(139,92,246);fill-rule:nonzero;"/>
                </g>
                <g transform="matrix(121.852,0,0,121.852,-60.1333,-1670.52)">
                    <path d="M0.344,-0L0.313,-0L0.3,-0.002C0.295,-0.003 0.289,-0.005 0.282,-0.008C0.272,-0.012 0.261,-0.018 0.248,-0.029C0.233,0.002 0.211,0.037 0.183,0.078C0.175,0.09 0.163,0.105 0.148,0.124L0.116,0.164C0.112,0.169 0.107,0.173 0.101,0.176C0.095,0.178 0.089,0.18 0.083,0.18C0.07,0.18 0.059,0.175 0.048,0.166C0.038,0.157 0.033,0.147 0.033,0.135C0.033,0.125 0.037,0.116 0.045,0.108C0.079,0.072 0.113,0.025 0.148,-0.031C0.162,-0.055 0.176,-0.081 0.189,-0.109C0.194,-0.119 0.199,-0.129 0.203,-0.141C0.208,-0.153 0.213,-0.167 0.218,-0.183C0.221,-0.195 0.227,-0.205 0.235,-0.211C0.244,-0.218 0.254,-0.221 0.264,-0.221C0.273,-0.221 0.282,-0.217 0.292,-0.21C0.301,-0.202 0.306,-0.192 0.306,-0.181L0.306,-0.175C0.306,-0.173 0.305,-0.171 0.305,-0.17C0.301,-0.152 0.299,-0.137 0.299,-0.126C0.299,-0.117 0.301,-0.109 0.305,-0.102C0.309,-0.096 0.316,-0.093 0.327,-0.093L0.344,-0.093L0.344,-0Z" style="fill:rgb(139,92,246);fill-rule:nonzero;"/>
                </g>
                <g transform="matrix(121.852,0,0,121.852,-19.3177,-1670.52)">
                    <path d="M0.219,-0.257C0.219,-0.202 0.196,-0.146 0.151,-0.087C0.106,-0.029 0.058,-0 0.008,-0L-0.005,-0L-0.005,-0.093L0.008,-0.093C0.04,-0.093 0.068,-0.112 0.092,-0.15C0.11,-0.18 0.124,-0.218 0.132,-0.263C0.134,-0.276 0.139,-0.285 0.147,-0.291C0.155,-0.297 0.164,-0.3 0.172,-0.3C0.184,-0.3 0.195,-0.296 0.205,-0.288C0.214,-0.28 0.219,-0.27 0.219,-0.257ZM0.161,0.177L0.161,0.182C0.161,0.185 0.161,0.187 0.16,0.188L0.159,0.198C0.157,0.211 0.149,0.224 0.136,0.237C0.122,0.249 0.109,0.255 0.094,0.255L0.086,0.255C0.074,0.253 0.063,0.247 0.053,0.237C0.047,0.228 0.043,0.217 0.043,0.204L0.043,0.193L0.044,0.184L0.047,0.177C0.05,0.163 0.058,0.151 0.072,0.142L0.091,0.131C0.094,0.13 0.098,0.13 0.101,0.129C0.105,0.128 0.108,0.128 0.112,0.128L0.121,0.128C0.148,0.133 0.161,0.149 0.161,0.177Z" style="fill:rgb(139,92,246);fill-rule:nonzero;"/>
                </g>
                <g transform="matrix(121.852,0,0,121.852,7.39691,-1670.52)">
                    <path d="M0.297,-0.125L0.297,-0.12C0.297,-0.117 0.297,-0.115 0.296,-0.115L0.293,-0.105C0.275,-0.05 0.251,-0.003 0.222,0.036C0.198,0.074 0.163,0.116 0.117,0.163C0.11,0.168 0.103,0.173 0.095,0.177C0.087,0.181 0.08,0.183 0.072,0.183C0.06,0.183 0.05,0.179 0.041,0.17C0.033,0.161 0.029,0.151 0.029,0.14C0.029,0.132 0.03,0.125 0.032,0.121C0.035,0.117 0.04,0.111 0.047,0.103C0.083,0.07 0.115,0.035 0.141,-0.003C0.168,-0.041 0.191,-0.084 0.21,-0.131C0.213,-0.141 0.219,-0.149 0.229,-0.157C0.238,-0.163 0.247,-0.166 0.256,-0.166C0.265,-0.166 0.275,-0.162 0.284,-0.155C0.293,-0.147 0.297,-0.137 0.297,-0.125Z" style="fill:rgb(139,92,246);fill-rule:nonzero;"/>
                </g>
                <g transform="matrix(121.852,0,0,121.852,43.6312,-1670.52)">
                    <path d="M0.221,-0.462C0.221,-0.454 0.22,-0.445 0.216,-0.435L0.186,-0.347L0.15,-0.233C0.138,-0.189 0.132,-0.16 0.132,-0.146C0.132,-0.126 0.134,-0.113 0.137,-0.106C0.142,-0.098 0.151,-0.093 0.165,-0.093L0.191,-0.093L0.191,-0L0.164,-0C0.131,-0 0.104,-0.01 0.082,-0.029C0.059,-0.052 0.047,-0.086 0.047,-0.131C0.047,-0.156 0.053,-0.192 0.063,-0.238C0.067,-0.258 0.072,-0.278 0.079,-0.297C0.08,-0.304 0.083,-0.313 0.086,-0.324C0.09,-0.335 0.094,-0.349 0.099,-0.364L0.116,-0.415L0.135,-0.468C0.139,-0.48 0.146,-0.489 0.155,-0.495C0.164,-0.501 0.173,-0.504 0.183,-0.504C0.193,-0.504 0.202,-0.501 0.21,-0.494C0.217,-0.487 0.221,-0.477 0.221,-0.462Z" style="fill:rgb(139,92,246);fill-rule:nonzero;"/>
                </g>
                <g transform="matrix(121.852,0,0,121.852,65.8835,-1670.52)">
                    <path d="M0.621,-0.791L0.62,-0.777C0.619,-0.771 0.617,-0.767 0.614,-0.764C0.612,-0.759 0.609,-0.754 0.605,-0.749C0.603,-0.744 0.598,-0.74 0.593,-0.735C0.571,-0.712 0.545,-0.688 0.517,-0.665C0.497,-0.649 0.467,-0.625 0.426,-0.595C0.368,-0.555 0.299,-0.512 0.222,-0.468C0.214,-0.465 0.207,-0.463 0.202,-0.463C0.19,-0.463 0.178,-0.466 0.168,-0.474C0.158,-0.482 0.153,-0.491 0.153,-0.501C0.153,-0.508 0.155,-0.515 0.159,-0.52C0.164,-0.526 0.173,-0.534 0.188,-0.543C0.214,-0.557 0.243,-0.574 0.276,-0.596C0.305,-0.615 0.339,-0.638 0.378,-0.667C0.418,-0.696 0.45,-0.721 0.476,-0.743C0.49,-0.755 0.502,-0.766 0.513,-0.775C0.524,-0.786 0.535,-0.797 0.543,-0.807C0.548,-0.813 0.555,-0.818 0.563,-0.822L0.572,-0.826L0.585,-0.828C0.595,-0.828 0.604,-0.825 0.611,-0.817C0.618,-0.81 0.621,-0.801 0.621,-0.791ZM0.224,-0.394L0.224,-0.364L0.222,-0.316L0.221,-0.297L0.221,-0.285L0.219,-0.275L0.219,-0.262L0.217,-0.252L0.212,-0.221C0.203,-0.151 0.182,-0.096 0.149,-0.058C0.116,-0.019 0.077,-0 0.032,-0L-0.005,-0L-0.005,-0.093L0.027,-0.093C0.052,-0.093 0.071,-0.104 0.086,-0.126C0.101,-0.147 0.113,-0.185 0.123,-0.238L0.126,-0.278L0.128,-0.311L0.131,-0.394C0.131,-0.409 0.136,-0.422 0.145,-0.431C0.155,-0.44 0.166,-0.445 0.179,-0.445C0.19,-0.445 0.201,-0.44 0.21,-0.431C0.219,-0.422 0.224,-0.41 0.224,-0.394Z" style="fill:rgb(139,92,246);fill-rule:nonzero;"/>
                </g>
                <g transform="matrix(121.852,0,0,121.852,135.199,-1670.52)">
                    <path d="M0.519,-0L0.481,-0C0.466,-0 0.448,-0.005 0.429,-0.015C0.41,-0.024 0.393,-0.037 0.38,-0.052C0.372,-0.046 0.362,-0.04 0.351,-0.034C0.34,-0.028 0.328,-0.022 0.313,-0.016C0.298,-0.011 0.284,-0.007 0.271,-0.004L0.25,-0.001L0.229,-0L0.221,0.01C0.216,0.016 0.211,0.02 0.206,0.023C0.199,0.028 0.191,0.031 0.184,0.031C0.174,0.031 0.166,0.028 0.161,0.022C0.156,0.016 0.152,0.007 0.149,-0.004L0.113,-0.011L0.095,-0.016L0.083,-0.021C0.076,-0.023 0.07,-0.028 0.067,-0.036L0.063,-0.049L0.062,-0.063C0.062,-0.078 0.065,-0.092 0.07,-0.104C0.076,-0.116 0.083,-0.122 0.09,-0.122C0.097,-0.117 0.109,-0.111 0.126,-0.104C0.134,-0.101 0.142,-0.099 0.15,-0.098L0.181,-0.096L0.193,-0.122L0.2,-0.137L0.209,-0.151L0.231,-0.222C0.236,-0.238 0.242,-0.267 0.25,-0.308C0.263,-0.374 0.269,-0.422 0.269,-0.453C0.269,-0.465 0.274,-0.476 0.284,-0.485C0.295,-0.493 0.307,-0.498 0.318,-0.498C0.328,-0.498 0.336,-0.495 0.341,-0.491C0.347,-0.486 0.351,-0.48 0.351,-0.471C0.351,-0.442 0.349,-0.413 0.346,-0.385L0.346,-0.375L0.344,-0.365L0.34,-0.338L0.329,-0.283C0.342,-0.293 0.356,-0.302 0.372,-0.31L0.393,-0.316C0.397,-0.317 0.4,-0.318 0.402,-0.318C0.404,-0.319 0.407,-0.319 0.411,-0.319L0.423,-0.317C0.442,-0.313 0.457,-0.303 0.467,-0.286C0.478,-0.27 0.483,-0.25 0.483,-0.228C0.483,-0.21 0.48,-0.192 0.473,-0.172C0.468,-0.153 0.458,-0.135 0.445,-0.117C0.448,-0.111 0.453,-0.105 0.461,-0.1C0.47,-0.096 0.479,-0.093 0.488,-0.093L0.519,-0.093L0.519,-0ZM0.407,-0.221C0.407,-0.223 0.406,-0.225 0.404,-0.226L0.398,-0.228C0.391,-0.228 0.382,-0.224 0.37,-0.216C0.364,-0.213 0.359,-0.209 0.354,-0.204L0.346,-0.198L0.337,-0.189C0.328,-0.179 0.318,-0.165 0.307,-0.147L0.282,-0.104C0.299,-0.109 0.315,-0.116 0.329,-0.125C0.335,-0.13 0.342,-0.135 0.349,-0.141C0.357,-0.147 0.364,-0.154 0.371,-0.161L0.382,-0.174L0.395,-0.193C0.403,-0.208 0.407,-0.218 0.407,-0.221Z" style="fill:rgb(139,92,246);fill-rule:nonzero;"/>
                </g>
                <g transform="matrix(121.852,0,0,121.852,197.196,-1670.52)">
                    <path d="M0.219,-0.257C0.219,-0.202 0.196,-0.146 0.151,-0.087C0.106,-0.029 0.058,-0 0.008,-0L-0.005,-0L-0.005,-0.093L0.008,-0.093C0.04,-0.093 0.068,-0.112 0.092,-0.15C0.11,-0.18 0.124,-0.218 0.132,-0.263C0.134,-0.276 0.139,-0.285 0.147,-0.291C0.155,-0.297 0.164,-0.3 0.172,-0.3C0.184,-0.3 0.195,-0.296 0.205,-0.288C0.214,-0.28 0.219,-0.27 0.219,-0.257ZM0.161,0.177L0.161,0.182C0.161,0.185 0.161,0.187 0.16,0.188L0.159,0.198C0.157,0.211 0.149,0.224 0.136,0.237C0.122,0.249 0.109,0.255 0.094,0.255L0.086,0.255C0.074,0.253 0.063,0.247 0.053,0.237C0.047,0.228 0.043,0.217 0.043,0.204L0.043,0.193L0.044,0.184L0.047,0.177C0.05,0.163 0.058,0.151 0.072,0.142L0.091,0.131C0.094,0.13 0.098,0.13 0.101,0.129C0.105,0.128 0.108,0.128 0.112,0.128L0.121,0.128C0.148,0.133 0.161,0.149 0.161,0.177Z" style="fill:rgb(139,92,246);fill-rule:nonzero;"/>
                </g>
                <g transform="matrix(121.852,0,0,121.852,223.91,-1670.52)">
                    <path d="M0.175,-0.44C0.175,-0.285 0.156,-0.152 0.117,-0.041C0.113,-0.029 0.106,-0.02 0.095,-0.012C0.085,-0.004 0.074,-0 0.063,-0C0.053,-0 0.045,-0.004 0.038,-0.01C0.032,-0.016 0.028,-0.026 0.028,-0.04C0.028,-0.05 0.031,-0.063 0.036,-0.076C0.051,-0.119 0.064,-0.178 0.075,-0.252C0.086,-0.326 0.091,-0.396 0.091,-0.46C0.091,-0.474 0.095,-0.485 0.102,-0.493C0.11,-0.501 0.118,-0.505 0.129,-0.505C0.14,-0.505 0.15,-0.499 0.16,-0.487C0.17,-0.475 0.175,-0.46 0.175,-0.44Z" style="fill:rgb(139,92,246);fill-rule:nonzero;"/>
                </g>
                <g transform="matrix(121.852,0,0,121.852,250.446,-1670.52)">
                    <path d="M0.297,-0.125L0.297,-0.12C0.297,-0.117 0.297,-0.115 0.296,-0.115L0.293,-0.105C0.275,-0.05 0.251,-0.003 0.222,0.036C0.198,0.074 0.163,0.116 0.117,0.163C0.11,0.168 0.103,0.173 0.095,0.177C0.087,0.181 0.08,0.183 0.072,0.183C0.06,0.183 0.05,0.179 0.041,0.17C0.033,0.161 0.029,0.151 0.029,0.14C0.029,0.132 0.03,0.125 0.032,0.121C0.035,0.117 0.04,0.111 0.047,0.103C0.083,0.07 0.115,0.035 0.141,-0.003C0.168,-0.041 0.191,-0.084 0.21,-0.131C0.213,-0.141 0.219,-0.149 0.229,-0.157C0.238,-0.163 0.247,-0.166 0.256,-0.166C0.265,-0.166 0.275,-0.162 0.284,-0.155C0.293,-0.147 0.297,-0.137 0.297,-0.125Z" style="fill:rgb(139,92,246);fill-rule:nonzero;"/>
                </g>
                <g transform="matrix(121.852,0,0,121.852,310.48,-1670.52)">
                    <path d="M0.629,-0L0.605,-0C0.598,-0 0.587,-0.001 0.574,-0.004L0.563,-0.008C0.557,-0.01 0.552,-0.013 0.547,-0.017C0.538,0.004 0.529,0.022 0.521,0.037C0.512,0.053 0.503,0.067 0.493,0.079C0.471,0.11 0.443,0.134 0.411,0.152C0.373,0.172 0.332,0.182 0.289,0.182C0.22,0.182 0.166,0.163 0.126,0.124C0.09,0.086 0.071,0.036 0.071,-0.028C0.071,-0.069 0.08,-0.107 0.097,-0.142C0.114,-0.178 0.136,-0.207 0.164,-0.229L0.182,-0.238C0.188,-0.24 0.193,-0.241 0.199,-0.241C0.212,-0.241 0.222,-0.237 0.231,-0.229C0.24,-0.221 0.244,-0.211 0.244,-0.199C0.244,-0.192 0.243,-0.186 0.24,-0.18C0.237,-0.174 0.232,-0.168 0.225,-0.162C0.206,-0.145 0.191,-0.125 0.181,-0.104C0.17,-0.082 0.165,-0.056 0.165,-0.027C0.165,0.001 0.177,0.027 0.2,0.049C0.224,0.072 0.255,0.083 0.294,0.083C0.355,0.083 0.403,0.054 0.437,-0.005C0.454,-0.034 0.467,-0.064 0.477,-0.095C0.488,-0.134 0.494,-0.173 0.494,-0.212C0.494,-0.227 0.496,-0.256 0.5,-0.298C0.502,-0.32 0.503,-0.338 0.503,-0.354L0.504,-0.408L0.507,-0.491C0.508,-0.502 0.513,-0.51 0.522,-0.516C0.531,-0.523 0.541,-0.526 0.552,-0.526C0.564,-0.526 0.575,-0.522 0.584,-0.515C0.593,-0.507 0.597,-0.496 0.597,-0.481L0.595,-0.424L0.594,-0.364L0.591,-0.307L0.591,-0.267L0.59,-0.256L0.587,-0.215L0.58,-0.148L0.578,-0.13C0.578,-0.12 0.58,-0.111 0.584,-0.103C0.588,-0.096 0.596,-0.093 0.607,-0.093L0.629,-0.093L0.629,-0Z" style="fill:rgb(139,92,246);fill-rule:nonzero;"/>
                </g>
                <g transform="matrix(121.852,0,0,121.852,385.566,-1670.52)">
                    <path d="M0.219,-0.257C0.219,-0.202 0.196,-0.146 0.151,-0.087C0.106,-0.029 0.058,-0 0.008,-0L-0.005,-0L-0.005,-0.093L0.008,-0.093C0.04,-0.093 0.068,-0.112 0.092,-0.15C0.11,-0.18 0.124,-0.218 0.132,-0.263C0.134,-0.276 0.139,-0.285 0.147,-0.291C0.155,-0.297 0.164,-0.3 0.172,-0.3C0.184,-0.3 0.195,-0.296 0.205,-0.288C0.214,-0.28 0.219,-0.27 0.219,-0.257ZM0.237,0.097L0.236,0.106C0.236,0.11 0.236,0.113 0.235,0.114C0.233,0.124 0.227,0.135 0.216,0.147L0.2,0.158C0.194,0.161 0.188,0.162 0.183,0.162L0.177,0.162C0.167,0.16 0.158,0.155 0.15,0.146C0.144,0.14 0.142,0.131 0.142,0.12L0.143,0.109L0.145,0.098C0.147,0.087 0.154,0.077 0.165,0.069C0.176,0.061 0.187,0.058 0.198,0.058L0.205,0.058C0.226,0.062 0.237,0.075 0.237,0.097ZM0.133,0.097L0.132,0.106C0.132,0.11 0.132,0.113 0.131,0.114C0.129,0.127 0.123,0.137 0.112,0.146L0.096,0.157C0.09,0.16 0.084,0.162 0.079,0.162L0.073,0.161C0.061,0.159 0.052,0.154 0.046,0.147C0.041,0.14 0.038,0.131 0.038,0.12L0.038,0.109L0.041,0.098C0.044,0.086 0.051,0.076 0.061,0.069C0.071,0.061 0.083,0.058 0.094,0.058L0.101,0.058C0.122,0.062 0.133,0.075 0.133,0.097Z" style="fill:rgb(139,92,246);fill-rule:nonzero;"/>
                </g>
                <g transform="matrix(121.852,0,0,121.852,414.304,-1670.52)">
                    <path d="M0.221,-0.462C0.221,-0.454 0.22,-0.445 0.216,-0.435L0.186,-0.347L0.15,-0.233C0.138,-0.189 0.132,-0.16 0.132,-0.146C0.132,-0.126 0.134,-0.113 0.137,-0.106C0.142,-0.098 0.151,-0.093 0.165,-0.093L0.191,-0.093L0.191,-0L0.164,-0C0.131,-0 0.104,-0.01 0.082,-0.029C0.059,-0.052 0.047,-0.086 0.047,-0.131C0.047,-0.156 0.053,-0.192 0.063,-0.238C0.067,-0.258 0.072,-0.278 0.079,-0.297C0.08,-0.304 0.083,-0.313 0.086,-0.324C0.09,-0.335 0.094,-0.349 0.099,-0.364L0.116,-0.415L0.135,-0.468C0.139,-0.48 0.146,-0.489 0.155,-0.495C0.164,-0.501 0.173,-0.504 0.183,-0.504C0.193,-0.504 0.202,-0.501 0.21,-0.494C0.217,-0.487 0.221,-0.477 0.221,-0.462Z" style="fill:rgb(139,92,246);fill-rule:nonzero;"/>
                </g>
                <g transform="matrix(121.852,0,0,121.852,436.556,-1670.52)">
                    <path d="M0.219,-0.433L0.218,-0.424C0.218,-0.42 0.218,-0.417 0.217,-0.416C0.215,-0.405 0.209,-0.394 0.199,-0.383L0.187,-0.375C0.18,-0.371 0.173,-0.369 0.165,-0.369L0.16,-0.369C0.148,-0.371 0.139,-0.376 0.132,-0.383C0.127,-0.39 0.124,-0.4 0.124,-0.411L0.125,-0.421C0.125,-0.425 0.126,-0.429 0.127,-0.433C0.13,-0.443 0.137,-0.453 0.147,-0.461C0.157,-0.469 0.169,-0.473 0.181,-0.473L0.187,-0.472C0.208,-0.469 0.219,-0.456 0.219,-0.433ZM0.115,-0.433L0.114,-0.424C0.114,-0.42 0.114,-0.417 0.113,-0.416C0.111,-0.406 0.105,-0.395 0.094,-0.383C0.084,-0.374 0.073,-0.369 0.061,-0.369L0.055,-0.37C0.045,-0.372 0.036,-0.376 0.028,-0.384C0.023,-0.392 0.02,-0.401 0.02,-0.411L0.021,-0.42L0.023,-0.433C0.026,-0.443 0.033,-0.452 0.042,-0.461C0.052,-0.469 0.064,-0.473 0.077,-0.473L0.083,-0.472C0.105,-0.469 0.115,-0.456 0.115,-0.433ZM0.239,-0L0.22,-0C0.198,-0 0.178,-0.006 0.16,-0.017C0.146,-0.026 0.134,-0.038 0.125,-0.053C0.111,-0.038 0.091,-0.025 0.064,-0.013C0.041,-0.004 0.022,-0 0.008,-0L-0.005,-0L-0.005,-0.093L0.01,-0.093C0.034,-0.093 0.058,-0.105 0.08,-0.128C0.102,-0.151 0.118,-0.18 0.126,-0.213C0.128,-0.223 0.134,-0.231 0.142,-0.236C0.151,-0.241 0.16,-0.244 0.169,-0.244C0.18,-0.244 0.189,-0.241 0.197,-0.236C0.205,-0.23 0.208,-0.222 0.208,-0.212L0.208,-0.205L0.196,-0.159L0.193,-0.142L0.192,-0.129C0.192,-0.118 0.195,-0.109 0.199,-0.103C0.203,-0.097 0.211,-0.093 0.222,-0.093L0.239,-0.093L0.239,-0Z" style="fill:rgb(139,92,246);fill-rule:nonzero;"/>
                </g>
                <g transform="matrix(121.852,0,0,121.852,458.035,-1670.52)">
                    <path d="M0.442,-0.226C0.438,-0.175 0.42,-0.125 0.39,-0.076C0.358,-0.025 0.326,-0 0.293,-0L0.276,-0.001L0.267,-0.004L0.259,-0.009L0.242,-0.021C0.237,-0.025 0.233,-0.03 0.229,-0.036C0.222,-0.028 0.21,-0.02 0.193,-0.01C0.179,-0.003 0.167,-0 0.157,-0C0.143,-0 0.131,-0.003 0.122,-0.01L0.106,-0.02L0.092,-0.035C0.069,-0.012 0.045,-0 0.02,-0L-0.005,-0L-0.005,-0.093L0.008,-0.093C0.021,-0.093 0.036,-0.105 0.052,-0.129C0.069,-0.153 0.082,-0.181 0.093,-0.214C0.095,-0.224 0.101,-0.232 0.109,-0.238L0.123,-0.244L0.137,-0.246C0.146,-0.246 0.156,-0.243 0.165,-0.237C0.174,-0.231 0.179,-0.224 0.179,-0.214C0.179,-0.211 0.178,-0.207 0.177,-0.204L0.162,-0.165C0.151,-0.138 0.146,-0.119 0.146,-0.108C0.146,-0.098 0.15,-0.093 0.159,-0.093C0.17,-0.093 0.184,-0.109 0.199,-0.141C0.209,-0.164 0.215,-0.188 0.22,-0.214C0.221,-0.223 0.225,-0.231 0.233,-0.238C0.241,-0.244 0.25,-0.247 0.261,-0.247C0.273,-0.247 0.284,-0.244 0.293,-0.238C0.302,-0.231 0.306,-0.222 0.306,-0.212L0.305,-0.204L0.284,-0.127L0.282,-0.11C0.282,-0.099 0.287,-0.093 0.295,-0.093C0.307,-0.093 0.321,-0.111 0.337,-0.146L0.345,-0.166L0.352,-0.188L0.361,-0.233C0.362,-0.243 0.366,-0.25 0.373,-0.255C0.38,-0.261 0.388,-0.263 0.395,-0.263C0.402,-0.263 0.408,-0.262 0.413,-0.261C0.417,-0.259 0.423,-0.256 0.429,-0.251C0.438,-0.244 0.442,-0.236 0.442,-0.226Z" style="fill:rgb(139,92,246);fill-rule:nonzero;"/>
                </g>
                <g transform="matrix(121.852,0,0,121.852,511.94,-1670.52)">
                    <path d="M0.175,-0.44C0.175,-0.285 0.156,-0.152 0.117,-0.041C0.113,-0.029 0.106,-0.02 0.095,-0.012C0.085,-0.004 0.074,-0 0.063,-0C0.053,-0 0.045,-0.004 0.038,-0.01C0.032,-0.016 0.028,-0.026 0.028,-0.04C0.028,-0.05 0.031,-0.063 0.036,-0.076C0.051,-0.119 0.064,-0.178 0.075,-0.252C0.086,-0.326 0.091,-0.396 0.091,-0.46C0.091,-0.474 0.095,-0.485 0.102,-0.493C0.11,-0.501 0.118,-0.505 0.129,-0.505C0.14,-0.505 0.15,-0.499 0.16,-0.487C0.17,-0.475 0.175,-0.46 0.175,-0.44Z" style="fill:rgb(139,92,246);fill-rule:nonzero;"/>
                </g>
            </g>
        </g>
    </g>
</svg>
