<?xml version="1.0" encoding="UTF-8" standalone="no"?>
<!DOCTYPE svg PUBLIC "-//W3C//DTD SVG 1.1//EN" "http://www.w3.org/Graphics/SVG/1.1/DTD/svg11.dtd">
<svg width="100%" height="100%" viewBox="0 0 293 329" version="1.1" xmlns="http://www.w3.org/2000/svg" xmlns:xlink="http://www.w3.org/1999/xlink" xml:space="preserve" xmlns:serif="http://www.serif.com/" style="fill-rule:evenodd;clip-rule:evenodd;stroke-linejoin:round;stroke-miterlimit:2;">
    <g transform="matrix(1,0,0,1,508.115,1927.38)">
        <g transform="matrix(4.49962,0,0,4.49962,-37073.2,-11298.3)">
            <path d="M8158.8,2082.6C8169.83,2087.46 8180.65,2093.71 8190.37,2100.82C8191.67,2112.8 8191.67,2125.3 8190.37,2137.27C8180.65,2144.39 8169.83,2150.64 8158.8,2155.5C8147.78,2150.64 8136.96,2144.39 8127.24,2137.27C8125.94,2125.3 8125.94,2112.8 8127.24,2100.82C8136.96,2093.71 8147.78,2087.46 8158.8,2082.6ZM8184.19,2106.41C8184.14,2105.76 8184.09,2105.12 8184.03,2104.48C8176.14,2098.93 8167.56,2093.98 8158.8,2089.92C8150.05,2093.98 8141.47,2098.93 8133.57,2104.48C8132.71,2114.1 8132.71,2124 8133.57,2133.62C8141.47,2139.17 8150.05,2144.12 8158.8,2148.18C8167.56,2144.12 8176.14,2139.17 8184.03,2133.62C8184.82,2124.85 8184.89,2115.85 8184.24,2107.05C8183.46,2108.28 8182.3,2110.02 8181.44,2111C8179.91,2112.72 8177.87,2114.11 8175.95,2115.96C8175.5,2116.39 8174.31,2117.7 8173.98,2118.08C8173.26,2118.91 8172.01,2120.2 8170.22,2121.93C8167.54,2124.51 8164.87,2126.52 8162.2,2127.97C8159.53,2129.41 8157.19,2130.13 8155.19,2130.13C8153.26,2130.13 8151.73,2129.46 8150.58,2128.12C8149.43,2126.79 8148.85,2124.97 8148.85,2122.66C8148.85,2120.59 8149.43,2118.53 8150.58,2116.49C8151.73,2114.43 8153.4,2112.48 8155.59,2110.63C8157.51,2109.05 8159.31,2107.87 8161,2107.08C8162.68,2106.29 8164.24,2105.89 8165.69,2105.89C8166.97,2105.89 8167.88,2106.13 8168.41,2106.6C8168.95,2107.07 8169.21,2107.88 8169.21,2109.04C8169.21,2111.38 8167.7,2113.8 8164.68,2116.33C8161.66,2118.85 8157.92,2120.62 8153.46,2121.66C8153.22,2122.23 8153.04,2122.8 8152.92,2123.34C8152.8,2123.89 8152.74,2124.37 8152.74,2124.8C8152.74,2125.77 8153.01,2126.53 8153.56,2127.08C8154.11,2127.62 8154.86,2127.9 8155.83,2127.9C8157.51,2127.9 8159.57,2127.19 8162,2125.78C8164.43,2124.37 8167.03,2122.37 8169.81,2119.79C8170.54,2119.09 8171.42,2118.2 8172.46,2117.12C8172.65,2116.93 8172.82,2116.75 8172.98,2116.59C8173.48,2116 8174.22,2115.24 8175.19,2114.32C8177.05,2112.54 8180.05,2109.9 8184.19,2106.41ZM8154.62,2118.92C8158.23,2118.07 8161.26,2116.71 8163.72,2114.82C8166.18,2112.94 8167.41,2111.18 8167.41,2109.54C8167.41,2108.96 8167.32,2108.55 8167.13,2108.31C8166.94,2108.07 8166.62,2107.94 8166.17,2107.94C8164.83,2107.94 8163.19,2108.88 8161.24,2110.74C8159.29,2112.61 8157.08,2115.34 8154.62,2118.92Z" style="fill:url(#_Linear1);"/>
        </g>
    </g>
    <defs>
        <linearGradient id="_Linear1" x1="0" y1="0" x2="1" y2="0" gradientUnits="userSpaceOnUse" gradientTransform="matrix(58.8055,-32.2708,45.7142,83.3029,8127.36,2137.11)"><stop offset="0" style="stop-color:rgb(155,27,209);stop-opacity:1"/><stop offset="1" style="stop-color:rgb(221,53,241);stop-opacity:1"/></linearGradient>
    </defs>
</svg>
